<?xml version="1.0" encoding="UTF-8"?>
<svg version="1.1" xmlns="http://www.w3.org/2000/svg" width="233" height="349">
<path d="M0 0 C76.89 0 153.78 0 233 0 C233 115.17 233 230.34 233 349 C156.11 349 79.22 349 0 349 C0 233.83 0 118.66 0 0 Z " fill="#030404" transform="translate(0,0)"/>
<path d="M0 0 C4.71553418 0.30921536 9.03831342 0.76197255 12.75 3.875 C13.100625 4.32875 13.45125 4.7825 13.8125 5.25 C12.79459345 7.52071461 12.03807171 9.05784632 10.125 10.6875 C8.53780338 12.23691921 8.53780338 12.23691921 8.8125 14.8125 C9.57769419 17.42487773 9.57769419 17.42487773 11.98413086 18.37866211 C15.12430274 19.34605731 17.78344222 19.5527064 21.06640625 19.62890625 C22.84241211 19.68014648 22.84241211 19.68014648 24.65429688 19.73242188 C26.49604492 19.77206055 26.49604492 19.77206055 28.375 19.8125 C30.81389899 19.87248339 33.25271144 19.93612781 35.69140625 20.00390625 C36.7697876 20.02783447 37.84816895 20.0517627 38.95922852 20.07641602 C41.40216225 20.22503635 43.47813035 20.55057 45.8125 21.25 C45.78651884 27.70631721 45.15506217 32.32329453 40.484375 37.02734375 C38.8125 38.25 38.8125 38.25 35.875 38.9375 C32.54939141 38.19093481 30.39841273 36.92450967 27.5390625 35.1484375 C23.98107272 33.29699486 20.7956977 34.00420058 17.0625 34.9375 C14.67157109 36.0994219 14.67157109 36.0994219 13.4375 38.4375 C12.64353735 42.01033192 13.00784747 44.69611798 13.8125 48.25 C15.56415634 50.411087 15.56415634 50.411087 17.66015625 50.48046875 C18.39105469 50.46628906 19.12195313 50.45210937 19.875 50.4375 C20.67292969 50.42460937 21.47085938 50.41171875 22.29296875 50.3984375 C25.52299234 50.20814154 28.68257499 49.74079315 31.8671875 49.17578125 C33.8125 49.25 33.8125 49.25 35.5390625 50.54296875 C37.13638622 52.68416649 37.33949493 54.4349272 37.25195312 57.078125 C36.67133328 59.94767732 35.52573768 62.35349456 34.28125 65 C33.82169922 65.98484375 33.36214844 66.9696875 32.88867188 67.984375 C32.3559668 69.10585937 32.3559668 69.10585937 31.8125 70.25 C31.07725098 70.15912109 30.34200195 70.06824219 29.58447266 69.97460938 C26.20287502 69.56021092 22.82022941 69.15505174 19.4375 68.75 C18.28121094 68.60691406 17.12492187 68.46382813 15.93359375 68.31640625 C4.27752569 66.61920648 4.27752569 66.61920648 -7.1875 68.25 C-6.70265724 72.89586892 -6.70265724 72.89586892 -5.1875 77.25 C-0.5675 77.25 4.0525 77.25 8.8125 77.25 C12.8125 84 12.8125 84 12.8125 86.25 C11.69230469 86.45496094 10.57210937 86.65992188 9.41796875 86.87109375 C7.94529176 87.14311689 6.47263664 87.41525849 5 87.6875 C4.26201172 87.82220703 3.52402344 87.95691406 2.76367188 88.09570312 C-0.30065076 88.66419737 -3.22678953 89.26309651 -6.1875 90.25 C-7.11815133 87.64417629 -7.33667407 86.60801776 -6.25 84 C-5.899375 83.4225 -5.54875 82.845 -5.1875 82.25 C-6.1775 82.745 -6.1775 82.745 -7.1875 83.25 C-15.48517096 83.82301313 -22.48683761 83.43648099 -30.1875 80.25 C-29.6925 80.806875 -29.1975 81.36375 -28.6875 81.9375 C-27.1875 84.25 -27.1875 84.25 -27.3125 86.75 C-27.45278072 89.44490543 -27.45278072 89.44490543 -25.12109375 91.38671875 C-21.51420994 93.67764229 -19.35865094 93.6213636 -15.125 93.5625 C-8.66242797 93.81884419 -8.66242797 93.81884419 -6.4921875 95.7890625 C-5.5 97.6875 -5.5 97.6875 -4.1875 101.25 C-2.7025 102.24 -2.7025 102.24 -1.1875 103.25 C-2.1875 106.25 -2.1875 106.25 -3.9375 107.19921875 C-9.3270179 108.96765431 -14.50217287 110.12905661 -20.1875 109.25 C-23.1875 107.25 -23.1875 107.25 -23.6640625 105.12109375 C-23.71304688 104.31800781 -23.76203125 103.51492187 -23.8125 102.6875 C-23.79112942 99.66923553 -23.79112942 99.66923553 -25.1875 97.25 C-36.11124505 94.78634686 -45.87521996 101.39056832 -55.1875 106.25 C-60.95874183 109.25 -60.95874183 109.25 -63.1875 109.25 C-64.19930498 107.19326547 -65.19651477 105.12934652 -66.1875 103.0625 C-66.744375 101.91394531 -67.30125 100.76539063 -67.875 99.58203125 C-69.11287782 96.43944261 -69.65853841 94.56493281 -69.1875 91.25 C-66.36989311 88.43239311 -63.58468989 88.98393794 -59.8125 88.9375 C-59.13960937 88.94072266 -58.46671875 88.94394531 -57.7734375 88.94726562 C-54.06788245 88.83420243 -52.46774394 88.50946875 -49.7109375 85.95703125 C-47.94112661 82.81221344 -47.905056 80.7148321 -48.5859375 77.18359375 C-49.55095933 74.08173787 -50.73636648 72.37861595 -53.1875 70.25 C-56.44307175 68.73653577 -56.44307175 68.73653577 -60.1875 69.25 C-62.32868284 70.91059671 -64.19554794 72.75586041 -66.140625 74.640625 C-68.39397916 76.41234621 -69.54244227 76.83101287 -72.375 76.9375 C-76.81691961 76.1364981 -78.24707917 75.66724583 -81.1875 72.25 C-86.1875 62.89917127 -86.1875 62.89917127 -86.1875 59.25 C-85.49527344 59.09144531 -84.80304688 58.93289062 -84.08984375 58.76953125 C-67.53510167 55.600266 -67.53510167 55.600266 -53.1875 48.25 C-52.43567347 44.9209041 -52.43567347 44.9209041 -53.1875 41.25 C-55.61928086 39.10556305 -58.27867437 37.65896241 -61.1875 36.25 C-60.4765625 32.4609375 -60.4765625 32.4609375 -57.875 30.5625 C-53.7181334 28.53240236 -50.24251395 28.09391166 -45.625 28.0625 C-44.67496094 28.04832031 -43.72492188 28.03414062 -42.74609375 28.01953125 C-40.1875 28.25 -40.1875 28.25 -37.1875 30.25 C-36.74609375 32.59765625 -36.74609375 32.59765625 -36.625 35.3125 C-36.54115721 37.95750758 -36.54115721 37.95750758 -36.1875 40.25 C-33.7132021 41.48714895 -32.47250667 41.20581362 -29.75 40.875 C-28.96753906 40.78476563 -28.18507812 40.69453125 -27.37890625 40.6015625 C-25.01803014 40.28348872 -25.01803014 40.28348872 -22.1875 39.25 C-20.29279184 39.1814505 -18.3958166 39.16519628 -16.5 39.1875 C-15.50613281 39.19652344 -14.51226562 39.20554688 -13.48828125 39.21484375 C-12.34939453 39.23224609 -12.34939453 39.23224609 -11.1875 39.25 C-11.1875 36.61 -11.1875 33.97 -11.1875 31.25 C-16.00931981 29.92424506 -20.57582067 30.34937561 -25.5 30.6875 C-26.75393555 30.76581055 -26.75393555 30.76581055 -28.03320312 30.84570312 C-30.08500789 30.97467371 -32.13631306 31.11155021 -34.1875 31.25 C-36.40205254 24.60634238 -32.44452942 16.61482296 -30.1875 10.25 C-27.38920143 10.09009722 -25.49216791 10.11742267 -22.8984375 11.24609375 C-19.76635852 12.40595585 -17.32988846 12.48300158 -14 12.4375 C-12.95457031 12.43105469 -11.90914063 12.42460937 -10.83203125 12.41796875 C-8.2105893 12.42388569 -8.2105893 12.42388569 -6.1875 11.25 C-5.79611322 9.18897765 -5.79611322 9.18897765 -5.6875 6.8125 C-5.39500828 2.2569415 -5.01648527 0.39344982 0 0 Z " fill="#DB222A" transform="translate(118.1875,116.75)"/>
<path d="M0 0 C0.95003906 -0.01417969 1.90007812 -0.02835938 2.87890625 -0.04296875 C5.4375 0.1875 5.4375 0.1875 8.4375 2.1875 C8.87890625 4.53515625 8.87890625 4.53515625 9 7.25 C9.08384279 9.89500758 9.08384279 9.89500758 9.4375 12.1875 C11.9117979 13.42464895 13.15249333 13.14331362 15.875 12.8125 C16.65746094 12.72226563 17.43992188 12.63203125 18.24609375 12.5390625 C20.60696986 12.22098872 20.60696986 12.22098872 23.4375 11.1875 C25.33220816 11.1189505 27.2291834 11.10269628 29.125 11.125 C30.11886719 11.13402344 31.11273438 11.14304688 32.13671875 11.15234375 C33.27560547 11.16974609 33.27560547 11.16974609 34.4375 11.1875 C30.2739486 19.3603972 30.2739486 19.3603972 25.4375 21.1875 C22.2605208 21.83871987 19.6011994 21.95990821 16.4375 21.1875 C14.17931949 19.53697534 12.27701073 17.71408113 10.28515625 15.75390625 C8.41598778 13.90086551 8.41598778 13.90086551 5.1875 13.625 C2.50259332 14.17418546 0.74352779 14.7327847 -1.5625 16.1875 C-2.58562203 18.008876 -2.58562203 18.008876 -3.125 20.1875 C-3.35960937 20.98027344 -3.59421875 21.77304688 -3.8359375 22.58984375 C-4.07570312 23.44707031 -4.31546875 24.30429688 -4.5625 25.1875 C-5.12327938 27.04218778 -5.68573684 28.89636914 -6.25 30.75 C-6.68889904 32.22875215 -7.12692084 33.70776655 -7.5625 35.1875 C-6.2425 35.8475 -4.9225 36.5075 -3.5625 37.1875 C-3.8925 38.8375 -4.2225 40.4875 -4.5625 42.1875 C-3.32113281 42.24808594 -2.07976562 42.30867188 -0.80078125 42.37109375 C0.84115577 42.45553623 2.48308232 42.54018236 4.125 42.625 C5.34993164 42.68397461 5.34993164 42.68397461 6.59960938 42.74414062 C10.63405811 42.95648003 14.49497309 43.23197922 18.4375 44.1875 C17.90125 45.26 17.365 46.3325 16.8125 47.4375 C15.09091193 50.92709505 15.09091193 50.92709505 16.1875 53.4375 C16.6 54.015 17.0125 54.5925 17.4375 55.1875 C18.4375 58.1875 18.4375 58.1875 18.75 60.1875 C19.71627424 62.9984796 20.87159407 63.69734908 23.4375 65.1875 C26.80877183 65.5045972 26.80877183 65.5045972 30.4375 65.4375 C36.94577918 65.74099488 36.94577918 65.74099488 39.13671875 67.73046875 C40.125 69.625 40.125 69.625 41.4375 73.1875 C42.9225 74.1775 42.9225 74.1775 44.4375 75.1875 C43.4375 78.1875 43.4375 78.1875 41.6875 79.13671875 C36.2979821 80.90515431 31.12282713 82.06655661 25.4375 81.1875 C22.4375 79.1875 22.4375 79.1875 21.9609375 77.05859375 C21.91195312 76.25550781 21.86296875 75.45242187 21.8125 74.625 C21.83387058 71.60673553 21.83387058 71.60673553 20.4375 69.1875 C9.51375495 66.72384686 -0.25021996 73.32806832 -9.5625 78.1875 C-15.33374183 81.1875 -15.33374183 81.1875 -17.5625 81.1875 C-18.57430498 79.13076547 -19.57151477 77.06684652 -20.5625 75 C-21.119375 73.85144531 -21.67625 72.70289063 -22.25 71.51953125 C-23.48787782 68.37694261 -24.03353841 66.50243281 -23.5625 63.1875 C-20.74489311 60.36989311 -17.95968989 60.92143794 -14.1875 60.875 C-13.51460937 60.87822266 -12.84171875 60.88144531 -12.1484375 60.88476562 C-8.44288245 60.77170243 -6.84274394 60.44696875 -4.0859375 57.89453125 C-2.31612661 54.74971344 -2.280056 52.6523321 -2.9609375 49.12109375 C-3.92595933 46.01923787 -5.11136648 44.31611595 -7.5625 42.1875 C-10.81807175 40.67403577 -10.81807175 40.67403577 -14.5625 41.1875 C-16.70368284 42.84809671 -18.57054794 44.69336041 -20.515625 46.578125 C-22.76897916 48.34984621 -23.91744227 48.76851287 -26.75 48.875 C-31.19191961 48.0739981 -32.62207917 47.60474583 -35.5625 44.1875 C-40.5625 34.83667127 -40.5625 34.83667127 -40.5625 31.1875 C-39.87027344 31.02894531 -39.17804687 30.87039062 -38.46484375 30.70703125 C-21.91010167 27.537766 -21.91010167 27.537766 -7.5625 20.1875 C-6.81067347 16.8584041 -6.81067347 16.8584041 -7.5625 13.1875 C-9.99428086 11.04306305 -12.65367437 9.59646241 -15.5625 8.1875 C-14.8515625 4.3984375 -14.8515625 4.3984375 -12.25 2.5 C-8.0931334 0.46990236 -4.61751395 0.03141166 0 0 Z " fill="#EBE9EE" transform="translate(72.5625,144.8125)"/>
<path d="M0 0 C0 1.32 0 2.64 0 4 C0.99 4.33 1.98 4.66 3 5 C4.3125 6.6875 4.3125 6.6875 5 9 C4.5 12 4.5 12 3 15 C1 16.33333333 -1 17.66666667 -3 19 C-4.97063344 21.50080385 -6.72731543 24.07472501 -8 27 C-7.67 27.66 -7.34 28.32 -7 29 C-5.906875 28.484375 -4.81375 27.96875 -3.6875 27.4375 C1.61422066 25.40057321 6.49498367 26.16008023 12 27 C12 27.66 12 28.32 12 29 C12.598125 29.12375 13.19625 29.2475 13.8125 29.375 C16 30 16 30 19 32 C18.67 33.32 18.34 34.64 18 36 C17.505 35.38125 17.01 34.7625 16.5 34.125 C12.33079476 30.58117555 7.83831622 30.16413538 2.5 29.6875 C-1.7458404 30.06659289 -5.10439014 31.3655376 -9 33 C-10.485 33.495 -10.485 33.495 -12 34 C-12.73323796 36.01508358 -12.73323796 36.01508358 -13 38 C-13.309375 37.030625 -13.61875 36.06125 -13.9375 35.0625 C-14.69523342 32.15934208 -14.69523342 32.15934208 -16 31 C-17.33808524 31.09259072 -18.67178382 31.2507196 -20 31.4375 C-32.81672244 32.92971808 -32.81672244 32.92971808 -36.625 29.9375 C-38.45142886 26.0355838 -38.24626519 24.10534415 -37 20 C-34.03051904 16.49753528 -31.93215022 14.22466863 -27.3125 13.6875 C-24.09421362 13.99111192 -23.10870817 14.36305008 -20.5 16 C-17.16416934 18.04264521 -14.96890051 18.86280446 -11 18 C-5.77629284 13.48861654 -4.88379896 8.67466083 -4 2 C-5.32 1.67 -6.64 1.34 -8 1 C-5.23735711 0.40267181 -2.83967231 0 0 0 Z " fill="#090403" transform="translate(168,136)"/>
<path d="M0 0 C3.0996593 -0.39570119 5.12198451 -0.49754211 7.875 1.0625 C9.63606706 4.09544883 9.67674957 6.65535324 9 10 C8.20802947 11.93863556 7.35989578 13.85490518 6.46875 15.75 C5.77942383 17.22726563 5.77942383 17.22726563 5.07617188 18.734375 C4.72103516 19.48203125 4.36589844 20.2296875 4 21 C-0.29236726 20.52697632 -4.58375004 20.04554646 -8.875 19.5625 C-10.09832031 19.42779297 -11.32164062 19.29308594 -12.58203125 19.15429688 C-13.74863281 19.02216797 -14.91523438 18.89003906 -16.1171875 18.75390625 C-17.19597168 18.63345947 -18.27475586 18.5130127 -19.38623047 18.38891602 C-22 18 -22 18 -24 17 C-26.04055005 16.92934383 -28.08334257 16.91578024 -30.125 16.9375 C-31.22070312 16.94652344 -32.31640625 16.95554688 -33.4453125 16.96484375 C-34.70988281 16.98224609 -34.70988281 16.98224609 -36 17 C-36 14 -36 14 -35 12.4375 C-31.91660105 10.221307 -28.69923032 9.78836056 -25 9 C-25 9.66 -25 10.32 -25 11 C-22.69 11.33 -20.38 11.66 -18 12 C-18 12.66 -18 13.32 -18 14 C-15.69 14 -13.38 14 -11 14 C-11 13.34 -11 12.68 -11 12 C-10.34 12 -9.68 12 -9 12 C-9.20625 11.071875 -9.4125 10.14375 -9.625 9.1875 C-10 6 -10 6 -8 3 C-7.34 3 -6.68 3 -6 3 C-6 3.66 -6 4.32 -6 5 C-2.83884224 3.63016497 -2.0072908 3.0109362 0 0 Z " fill="#DA222B" transform="translate(146,166)"/>
<path d="M0 0 C4.02862046 1.59624584 6.3165946 3.52518771 8.3125 7.3125 C9.89389081 11.73160878 9.69495555 14.43603936 7.8125 18.75 C4.32210666 22.46168629 -0.83700016 22.09146649 -5.60546875 22.26342773 C-7.29918916 22.29878331 -8.99341597 22.30823815 -10.6875 22.3125 C-11.6775 24.7875 -11.6775 24.7875 -12.6875 27.3125 C-13.0175 27.3125 -13.3475 27.3125 -13.6875 27.3125 C-13.9375 24.5 -13.9375 24.5 -13.6875 21.3125 C-11.30581539 18.7907163 -9.93448247 18.3348716 -6.453125 18.01953125 C-5.29296875 18.05433594 -4.1328125 18.08914062 -2.9375 18.125 C-1.76703125 18.15207031 -0.5965625 18.17914063 0.609375 18.20703125 C1.50140625 18.24183594 2.3934375 18.27664062 3.3125 18.3125 C3.3125 17.3225 3.3125 16.3325 3.3125 15.3125 C1.27025363 15.42764149 -0.77130159 15.55507326 -2.8125 15.6875 C-4.51792969 15.79191406 -4.51792969 15.79191406 -6.2578125 15.8984375 C-9.64143616 16.30693876 -12.50362441 17.12217569 -15.6875 18.3125 C-14.06410195 16.60365995 -12.39430947 14.93803283 -10.6875 13.3125 C-10.0275 13.3125 -9.3675 13.3125 -8.6875 13.3125 C-8.3575 11.9925 -8.0275 10.6725 -7.6875 9.3125 C-8.595 9.498125 -9.5025 9.68375 -10.4375 9.875 C-13.37064324 10.26984621 -14.9519657 10.25941572 -17.6875 9.3125 C-17.6875 9.9725 -17.6875 10.6325 -17.6875 11.3125 C-19.0075 10.6525 -20.3275 9.9925 -21.6875 9.3125 C-21.6875 8.6525 -21.6875 7.9925 -21.6875 7.3125 C-21.0584375 7.39371094 -20.429375 7.47492188 -19.78125 7.55859375 C-14.30641234 8.00523078 -14.30641234 8.00523078 -9.48828125 5.71875 C-8.1791195 4.42244838 -6.87051111 3.12558764 -5.5625 1.828125 C-3.6875 0.3125 -3.6875 0.3125 0 0 Z " fill="#131416" transform="translate(61.6875,184.6875)"/>
<path d="M0 0 C0.61875 0.495 1.2375 0.99 1.875 1.5 C5.2975433 3.91591292 8.94734114 3.56246867 13 3 C15.97984167 1.66829691 15.97984167 1.66829691 18 0 C17.690625 0.5775 17.38125 1.155 17.0625 1.75 C16.07128616 3.84904107 15.52451199 5.75074138 15 8 C15.52207031 7.77183594 16.04414063 7.54367188 16.58203125 7.30859375 C23.02381355 4.79280136 28.22301487 4.94861726 35 6 C35 6.66 35 7.32 35 8 C35.598125 8.12375 36.19625 8.2475 36.8125 8.375 C39 9 39 9 42 11 C41.67 12.32 41.34 13.64 41 15 C40.505 14.38125 40.01 13.7625 39.5 13.125 C35.33079476 9.58117555 30.83831622 9.16413538 25.5 8.6875 C21.2541596 9.06659289 17.89560986 10.3655376 14 12 C13.01 12.33 12.02 12.66 11 13 C10.26676204 15.01508358 10.26676204 15.01508358 10 17 C9.690625 16.030625 9.38125 15.06125 9.0625 14.0625 C8.30476658 11.15934208 8.30476658 11.15934208 7 10 C5.66191476 10.09259072 4.32821618 10.2507196 3 10.4375 C-7.06509548 11.62730362 -7.06509548 11.62730362 -11 11 C-13.0625 9 -13.0625 9 -14 7 C-9.38702869 1.29448285 -7.76779501 -0.53571 0 0 Z " fill="#161717" transform="translate(145,157)"/>
<path d="M0 0 C9.69211572 -0.36194623 18.69083639 -0.15613945 28 3 C28.66 3.66 29.32 4.32 30 5 C29.67028521 8.29714793 29.3773161 9.6226839 27 12 C24.03854694 12.00884896 21.19567988 11.90423119 18.25 11.6875 C17.45078125 11.63916016 16.6515625 11.59082031 15.828125 11.54101562 C11.49586625 11.25956131 7.27253545 10.80626879 3 10 C3.0928125 8.824375 3.0928125 8.824375 3.1875 7.625 C3.125625 6.75875 3.06375 5.8925 3 5 C2.01 4.34 1.02 3.68 0 3 C0 2.01 0 1.02 0 0 Z " fill="#212A53" transform="translate(65,177)"/>
<path d="M0 0 C3.91665108 -0.02904864 7.8332744 -0.04681517 11.75 -0.0625 C12.86117187 -0.07087891 13.97234375 -0.07925781 15.1171875 -0.08789062 C16.18710938 -0.09111328 17.25703125 -0.09433594 18.359375 -0.09765625 C19.34389648 -0.10289307 20.32841797 -0.10812988 21.34277344 -0.11352539 C23.72869514 -0.01159103 25.72164581 0.31696643 28 1 C27.91266424 2.60517097 27.80447776 4.20921662 27.6875 5.8125 C27.62949219 6.70582031 27.57148438 7.59914062 27.51171875 8.51953125 C26.93686419 11.30604 26.1793144 12.24135754 24 14 C24 13.34 24 12.68 24 12 C23.01 12.66 22.02 13.32 21 14 C17.3125 13.625 17.3125 13.625 14 13 C13.67 11.35 13.34 9.7 13 8 C11.02 8.33 9.04 8.66 7 9 C7 8.34 7 7.68 7 7 C6.34 6.67 5.68 6.34 5 6 C5.33 5.34 5.66 4.68 6 4 C4.68 4 3.36 4 2 4 C2 3.34 2 2.68 2 2 C1.34 1.34 0.68 0.68 0 0 Z " fill="#D62027" transform="translate(136,137)"/>
<path d="M0 0 C1.155 0.33 2.31 0.66 3.5 1 C10.59410319 2.6169545 17.76690969 2.12156454 25 2 C24.34 6.95 23.68 11.9 23 17 C22.67 16.01 22.34 15.02 22 14 C20.58847656 14.08701172 20.58847656 14.08701172 19.1484375 14.17578125 C7.7016984 14.59051817 7.7016984 14.59051817 4.125 11.8125 C1.76871074 8.69388187 1.6142328 7.76123024 2 4 C1.05948649 1.87377198 1.05948649 1.87377198 0 0 Z " fill="#2A3252" transform="translate(88,197)"/>
<path d="M0 0 C0.33 0 0.66 0 1 0 C1.33 6.27 1.66 12.54 2 19 C-0.413125 19.020625 -2.82625 19.04125 -5.3125 19.0625 C-6.06829346 19.071604 -6.82408691 19.08070801 -7.6027832 19.09008789 C-10.6839493 19.10287966 -13.05605196 18.98131601 -16 18 C-17.155 18.20625 -18.31 18.4125 -19.5 18.625 C-23 19 -23 19 -24.9375 17.875 C-26.36066991 15.36352369 -26.42674516 13.84496772 -26 11 C-24.83203125 9.35546875 -24.83203125 9.35546875 -23 8 C-20.30078125 7.70703125 -20.30078125 7.70703125 -17.3125 7.8125 C-16.31863281 7.83957031 -15.32476562 7.86664062 -14.30078125 7.89453125 C-13.16189453 7.94673828 -13.16189453 7.94673828 -12 8 C-12 10.97 -12 13.94 -12 17 C-10.68 17 -9.36 17 -8 17 C-8 14.36 -8 11.72 -8 9 C-8.66 8.67 -9.32 8.34 -10 8 C-8.35 8 -6.7 8 -5 8 C-4.95101562 8.63808594 -4.90203125 9.27617187 -4.8515625 9.93359375 C-4.77679688 10.75988281 -4.70203125 11.58617187 -4.625 12.4375 C-4.55539063 13.26121094 -4.48578125 14.08492187 -4.4140625 14.93359375 C-4.27742188 15.61550781 -4.14078125 16.29742187 -4 17 C-3.34 17.33 -2.68 17.66 -2 18 C-2.02320312 16.86820313 -2.04640625 15.73640625 -2.0703125 14.5703125 C-2.08906901 13.08854825 -2.10726934 11.60677688 -2.125 10.125 C-2.14175781 9.37863281 -2.15851563 8.63226563 -2.17578125 7.86328125 C-2.1933959 5.90805539 -2.10320189 3.95257979 -2 2 C-1.34 1.34 -0.68 0.68 0 0 Z " fill="#91969D" transform="translate(119,22)"/>
<path d="M0 0 C4.62 0 9.24 0 14 0 C18 6.75 18 6.75 18 9 C16.31970703 9.30744141 16.31970703 9.30744141 14.60546875 9.62109375 C13.13279176 9.89311689 11.66013664 10.16525849 10.1875 10.4375 C9.44951172 10.57220703 8.71152344 10.70691406 7.95117188 10.84570312 C4.88684924 11.41419737 1.96071047 12.01309651 -1 13 C-1.5625 11.0625 -1.5625 11.0625 -2 9 C-1.67 8.67 -1.34 8.34 -1 8 C-0.76924918 6.65252916 -0.58846937 5.29622435 -0.4375 3.9375 C-0.293125 2.638125 -0.14875 1.33875 0 0 Z " fill="#D5D5DD" transform="translate(113,194)"/>
<path d="M0 0 C1.47668858 0.0133035 2.95331108 0.03716415 4.4296875 0.0703125 C5.18378906 0.07933594 5.93789063 0.08835937 6.71484375 0.09765625 C8.57826004 0.1212438 10.44151343 0.15711531 12.3046875 0.1953125 C12.6346875 1.1853125 12.9646875 2.1753125 13.3046875 3.1953125 C12.9746875 3.8553125 12.6446875 4.5153125 12.3046875 5.1953125 C11.3146875 5.1953125 10.3246875 5.1953125 9.3046875 5.1953125 C9.3046875 7.1753125 9.3046875 9.1553125 9.3046875 11.1953125 C7.3132819 11.57664549 5.31189673 11.90856832 3.3046875 12.1953125 C2.9746875 11.8653125 2.6446875 11.5353125 2.3046875 11.1953125 C0.850625 11.22625 0.850625 11.22625 -0.6328125 11.2578125 C-3.6953125 11.1953125 -3.6953125 11.1953125 -5.6953125 9.1953125 C-5.9453125 5.6953125 -5.9453125 5.6953125 -5.6953125 2.1953125 C-3.6953125 0.1953125 -3.6953125 0.1953125 0 0 Z " fill="#191A1D" transform="translate(33.6953125,29.8046875)"/>
<path d="M0 0 C0.66 0 1.32 0 2 0 C4 3 4 3 4 6 C5.32 6.33 6.64 6.66 8 7 C7 10 7 10 4.4453125 11.28125 C-17.08298755 19.18340249 -17.08298755 19.18340249 -23 18 C-24.88599343 15.61107499 -26 14.08148442 -26 11 C-24.58344207 10.9727585 -23.16672955 10.95349533 -21.75 10.9375 C-20.56664062 10.92009766 -20.56664062 10.92009766 -19.359375 10.90234375 C-17 11 -17 11 -15.03125 11.5 C-12.55120789 12.1104719 -10.30055357 12.09605992 -7.75 12.0625 C-6.85796875 12.05347656 -5.9659375 12.04445312 -5.046875 12.03515625 C-4.37140625 12.02355469 -3.6959375 12.01195312 -3 12 C-2.84660156 11.38640625 -2.69320312 10.7728125 -2.53515625 10.140625 C-2.0234375 8.09375 -1.51171875 6.046875 -1 4 C-0.34 4 0.32 4 1 4 C0.67 2.68 0.34 1.36 0 0 Z " fill="#161718" transform="translate(156,180)"/>
<path d="M0 0 C0.99386719 0.00902344 1.98773438 0.01804688 3.01171875 0.02734375 C4.15060547 0.04474609 4.15060547 0.04474609 5.3125 0.0625 C1.1489486 8.2353972 1.1489486 8.2353972 -3.6875 10.0625 C-6.86814195 10.71447067 -9.51942223 10.82829363 -12.6875 10.0625 C-15.71322908 8.04868694 -18.20802381 5.71087784 -20.6875 3.0625 C-17.36376569 1.95458856 -14.31421318 1.6676599 -10.84375 1.34375 C-0.49685252 -0.00584532 -0.49685252 -0.00584532 0 0 Z " fill="#EBECF0" transform="translate(101.6875,155.9375)"/>
<path d="M0 0 C0.66 0 1.32 0 2 0 C2 0.66 2 1.32 2 2 C5.465 1.505 5.465 1.505 9 1 C9 1.66 9 2.32 9 3 C7.89140625 3.31453125 6.7828125 3.6290625 5.640625 3.953125 C4.17688392 4.38474096 2.71335305 4.81707029 1.25 5.25 C0.52039063 5.45496094 -0.20921875 5.65992188 -0.9609375 5.87109375 C-5.26739744 7.16303173 -8.12532795 8.3385756 -11 12 C-11 12.33 -11 12.66 -11 13 C-15.22910869 13.05817206 -19.45811409 13.09365463 -23.6875 13.125 C-25.48477539 13.15013672 -25.48477539 13.15013672 -27.31835938 13.17578125 C-28.47529297 13.18222656 -29.63222656 13.18867188 -30.82421875 13.1953125 C-32.41882935 13.21102295 -32.41882935 13.21102295 -34.0456543 13.22705078 C-37.08126781 12.99375431 -39.25623267 12.28205135 -42 11 C-37.25 5.25 -37.25 5.25 -35 3 C-35 3.99 -35 4.98 -35 6 C-34.67 7.32 -34.34 8.64 -34 10 C-27.07 10 -20.14 10 -13 10 C-13 9.34 -13 8.68 -13 8 C-11.06753564 6.73792297 -9.07723953 5.56359129 -7.0625 4.4375 C-3.31381893 2.52358755 -3.31381893 2.52358755 0 0 Z " fill="#1C1A1A" transform="translate(170,124)"/>
<path d="M0 0 C0.66 0.33 1.32 0.66 2 1 C2.50266974 4.41815421 1.94955741 6.1049206 0.4375 9.25 C-2.15289487 12.2213353 -4.88974939 12.45601338 -8.71655273 12.76855469 C-11.81420966 12.92587308 -14.89814055 12.99219658 -18 13 C-18.66 14.65 -19.32 16.3 -20 18 C-20.33 18 -20.66 18 -21 18 C-21.25 15.1875 -21.25 15.1875 -21 12 C-18.61831539 9.4782163 -17.24698247 9.0223716 -13.765625 8.70703125 C-12.60546875 8.74183594 -11.4453125 8.77664062 -10.25 8.8125 C-8.49429688 8.85310547 -8.49429688 8.85310547 -6.703125 8.89453125 C-5.81109375 8.92933594 -4.9190625 8.96414062 -4 9 C-4 8.01 -4 7.02 -4 6 C-6.04224637 6.11514149 -8.08380159 6.24257326 -10.125 6.375 C-11.83042969 6.47941406 -11.83042969 6.47941406 -13.5703125 6.5859375 C-16.95393616 6.99443876 -19.81612441 7.80967569 -23 9 C-20.11513173 5.42933789 -18.69929242 4.10736893 -14.08203125 3.3984375 C-12.65918335 3.36684791 -11.23561461 3.35954536 -9.8125 3.375 C-7.15743119 3.375 -4.65404455 3.25332723 -2 3 C-1.34 2.01 -0.68 1.02 0 0 Z " fill="#191A1E" transform="translate(69,194)"/>
<path d="M0 0 C0.87140625 0.26425781 1.7428125 0.52851562 2.640625 0.80078125 C4.75 1.6875 4.75 1.6875 5.75 3.6875 C7.7337136 4.71613254 7.7337136 4.71613254 9.8125 5.5 C11.75 6.6875 11.75 6.6875 12.4375 8.6875 C12.540625 9.3475 12.64375 10.0075 12.75 10.6875 C13.08 11.3475 13.41 12.0075 13.75 12.6875 C12.821875 12.955625 11.89375 13.22375 10.9375 13.5 C6.5642507 15.12924974 5.30323881 16.85764178 2.75 20.6875 C3.2293247 16.37357774 4.4957985 14.52180453 7.75 11.6875 C7.24743888 9.67317734 7.24743888 9.67317734 5.75 7.6875 C0.99325275 5.82210892 -3.17841683 5.49243911 -8.25 5.6875 C-9.24 5.6875 -10.23 5.6875 -11.25 5.6875 C-11.085 5.06875 -10.92 4.45 -10.75 3.8125 C-10.17365356 1.72686614 -10.17365356 1.72686614 -10.25 -0.3125 C-6.34243012 -1.3596725 -3.8456026 -1.21470382 0 0 Z " fill="#161212" transform="translate(123.25,112.3125)"/>
<path d="M0 0 C3.19117575 0.29685356 4.93511719 0.0216276 8 -1 C7.42655063 1.86724686 7.1385485 2.8614515 5 5 C1.08560451 5.54619472 -1.2264467 5.04687812 -4.5 3 C-7.81763063 0.94657664 -10.03967098 0.39734124 -14 1 C-14.845625 1.515625 -15.69125 2.03125 -16.5625 2.5625 C-19 4 -19 4 -21.6875 3.8125 C-24 3 -24 3 -26 1 C-25.34 0.67 -24.68 0.34 -24 0 C-23.01 0.33 -22.02 0.66 -21 1 C-20.67 0.01 -20.34 -0.98 -20 -2 C-12.18427115 -3.27603736 -7.08995175 -3.69910526 0 0 Z " fill="#D9313F" transform="translate(152,150)"/>
<path d="M0 0 C-3.14017633 3.51416534 -6.76217372 4.35628467 -11.1875 5.5625 C-11.91775391 5.77068359 -12.64800781 5.97886719 -13.40039062 6.19335938 C-15.59575872 6.81366267 -17.79609174 7.41081694 -20 8 C-20.72396973 8.19706543 -21.44793945 8.39413086 -22.19384766 8.59716797 C-25.61298786 9.49810943 -28.43708428 10 -32 10 C-32 8.35 -32 6.7 -32 5 C-31.278125 5.185625 -30.55625 5.37125 -29.8125 5.5625 C-26.87173027 6.01995307 -24.85896942 5.73516357 -22 5 C-22 4.34 -22 3.68 -22 3 C-24.97 2.505 -24.97 2.505 -28 2 C-28 1.67 -28 1.34 -28 1 C-24.535 0.505 -24.535 0.505 -21 0 C-21 1.65 -21 3.3 -21 5 C-19.84371094 4.566875 -19.84371094 4.566875 -18.6640625 4.125 C-17.66117188 3.75375 -16.65828125 3.3825 -15.625 3 C-14.62726562 2.62875 -13.62953125 2.2575 -12.6015625 1.875 C-10 1 -10 1 -8 1 C-8 0.34 -8 -0.32 -8 -1 C-4.59745511 -2.2151946 -3.06748874 -1.86240388 0 0 Z " fill="#171718" transform="translate(64,160)"/>
<path d="M0 0 C9.69211572 -0.36194623 18.69083639 -0.15613945 28 3 C30 5 30 5 30 9 C29.34 9 28.68 9 28 9 C28 8.34 28 7.68 28 7 C18.70030388 5.34437228 9.37579682 4.11843262 0 3 C0 2.01 0 1.02 0 0 Z " fill="#130709" transform="translate(65,177)"/>
<path d="M0 0 C2.23181756 0.49595946 4.12226338 1.05938507 6.1875 2.0625 C10.13683462 3.37894487 13.8742519 3.16179404 18 3 C18.33 4.65 18.66 6.3 19 8 C11.05237979 8.20349525 3.65134958 8.33431004 -4 6 C-4.33 5.34 -4.66 4.68 -5 4 C-4.01 4 -3.02 4 -2 4 C-1.34 2.68 -0.68 1.36 0 0 Z " fill="#D52935" transform="translate(92,192)"/>
<path d="M0 0 C2.56687367 3.8503105 1.83288724 5.58569763 1 10 C2.32 10 3.64 10 5 10 C5.16677282 6.58343976 5.16677282 6.58343976 5 3 C4.34 2.34 3.68 1.68 3 1 C7.875 1.875 7.875 1.875 9 3 C9.26293056 7.03160191 9.29404844 8.55892734 7 12 C5.35 12 3.7 12 2 12 C1.67 18.93 1.34 25.86 1 33 C0.34 33 -0.32 33 -1 33 C-1.19249739 28.78293756 -1.37118014 24.56558401 -1.53710938 20.34741211 C-1.59549105 18.91268244 -1.65763834 17.47810083 -1.72363281 16.04370117 C-1.8178682 13.98123128 -1.89852573 11.9186072 -1.9765625 9.85546875 C-2.02893066 8.61434326 -2.08129883 7.37321777 -2.13525391 6.09448242 C-2 3 -2 3 0 0 Z " fill="#ACB7C8" transform="translate(62,29)"/>
<path d="M0 0 C2 2 2 2 2.25 5.5 C2 9 2 9 0 11 C-3.13704316 11.333728 -5.16554166 11.52849028 -7.875 9.8125 C-9.40659584 7.34492892 -9.42822025 5.85480169 -9 3 C-6.73157826 -0.65467947 -4.03373275 -0.4291205 0 0 Z " fill="#BCC1C8" transform="translate(131,30)"/>
<path d="M0 0 C1.89128342 1.89128342 1.2366852 4.57067726 1.328125 7.08984375 C1.21984375 7.72019531 1.1115625 8.35054687 1 9 C-2.23253796 11.15502531 -3.25150923 11.46856135 -7 11 C-8.8125 9.8125 -8.8125 9.8125 -10 8 C-10.42317323 5.17884512 -10.38718434 3.66049093 -8.9375 1.1875 C-5.97824997 -0.62623389 -3.38419775 -0.25068132 0 0 Z " fill="#141518" transform="translate(103,30)"/>
<path d="M0 0 C0.33 2.31 0.66 4.62 1 7 C-1 5.625 -1 5.625 -3 4 C-3 3.34 -3 2.68 -3 2 C-5.54320516 2.08759258 -8.08316933 2.19453413 -10.625 2.3125 C-11.33785156 2.33505859 -12.05070312 2.35761719 -12.78515625 2.38085938 C-17.57065143 2.62232932 -20.73175937 3.66561033 -25 6 C-25.99 6 -26.98 6 -28 6 C-27.5625 3.625 -27.5625 3.625 -26 1 C-23.79705532 0.17617151 -21.6799791 -0.20902409 -19.359375 -0.5859375 C-16.76894967 -0.96359556 -16.76894967 -0.96359556 -13.5625 -2.3125 C-8.52397918 -3.28484612 -4.72251122 -1.76737844 0 0 Z " fill="#131314" transform="translate(83,138)"/>
<path d="M0 0 C-0.33 1.32 -0.66 2.64 -1 4 C-2.90072266 3.58427734 -2.90072266 3.58427734 -4.83984375 3.16015625 C-6.53901215 2.79403709 -8.23823378 2.42816488 -9.9375 2.0625 C-10.76830078 1.88009766 -11.59910156 1.69769531 -12.45507812 1.50976562 C-17.96353223 0.33091358 -23.39185755 -0.46238796 -29 -1 C-29 -1.66 -29 -2.32 -29 -3 C-8.4205553 -5.09665189 -8.4205553 -5.09665189 0 0 Z " fill="#E13545" transform="translate(96,177)"/>
<path d="M0 0 C2.02408755 0.09002398 4.04544287 0.24641038 6.0625 0.4375 C7.71958984 0.59025391 7.71958984 0.59025391 9.41015625 0.74609375 C10.26480469 0.82988281 11.11945313 0.91367188 12 1 C12.33 2.32 12.66 3.64 13 5 C12.01 5 11.02 5 10 5 C9.67 6.65 9.34 8.3 9 10 C5.67465243 11.10844919 3.37817425 10.84454356 0 10 C-0.19412181 8.52168779 -0.38012131 7.04230684 -0.5625 5.5625 C-0.66691406 4.73878906 -0.77132812 3.91507812 -0.87890625 3.06640625 C-0.91886719 2.38449219 -0.95882812 1.70257813 -1 1 C-0.67 0.67 -0.34 0.34 0 0 Z " fill="#0F1013" transform="translate(92,74)"/>
<path d="M0 0 C2 0.375 2 0.375 4 1 C4.66 1 5.32 1 6 1 C6.99 1 7.98 1 9 1 C9.33 3.97 9.66 6.94 10 10 C8.20906809 10.08086147 6.41710372 10.13912702 4.625 10.1875 C3.12839844 10.23970703 3.12839844 10.23970703 1.6015625 10.29296875 C0.74304688 10.19628906 -0.11546875 10.09960938 -1 10 C-3 7 -3 7 -2.75 4.4375 C-2 2 -2 2 0 0 Z " fill="#60656C" transform="translate(140,54)"/>
<path d="M0 0 C3.92610505 0.25744951 7.12745926 0.87714169 10.8125 2.25 C11.8025 3.735 11.8025 3.735 12.8125 5.25 C11.8225 5.58 10.8325 5.91 9.8125 6.25 C9.1525 5.26 8.4925 4.27 7.8125 3.25 C4.72884129 2.9997843 4.72884129 2.9997843 1.8125 3.25 C1.8125 5.56 1.8125 7.87 1.8125 10.25 C1.214375 10.37375 0.61625 10.4975 0 10.625 C-2.44981348 11.20475985 -2.44981348 11.20475985 -5.1875 13.25 C-6.1775 12.92 -7.1675 12.59 -8.1875 12.25 C-7.5275 11.92 -6.8675 11.59 -6.1875 11.25 C-5.79611322 9.18897765 -5.79611322 9.18897765 -5.6875 6.8125 C-5.39500828 2.2569415 -5.01648527 0.39344982 0 0 Z " fill="#C12024" transform="translate(118.1875,116.75)"/>
<path d="M0 0 C1.155 0.33 2.31 0.66 3.5 1 C10.56258306 2.60977014 17.80367946 2.15893714 25 2 C24.6875 3.9375 24.6875 3.9375 24 6 C18.34872474 7.88375842 11.30969196 8.0996016 5.625 6.2109375 C2.46505669 4.48613511 1.15447988 3.46343965 0 0 Z " fill="#070507" transform="translate(88,197)"/>
<path d="M0 0 C1.40765625 0.00580078 1.40765625 0.00580078 2.84375 0.01171875 C5.52087334 0.3148636 7.19965635 0.95073996 9.5 2.3125 C9.5 2.9725 9.5 3.6325 9.5 4.3125 C10.16 4.3125 10.82 4.3125 11.5 4.3125 C11.5 4.9725 11.5 5.6325 11.5 6.3125 C12.16 6.3125 12.82 6.3125 13.5 6.3125 C13.17 7.3025 12.84 8.2925 12.5 9.3125 C11.84 8.9825 11.18 8.6525 10.5 8.3125 C10.5 7.6525 10.5 6.9925 10.5 6.3125 C9.88125 6.003125 9.2625 5.69375 8.625 5.375 C7.25 4.6875 5.875 4 4.5 3.3125 C-0.73115287 2.91010363 -4.02496176 3.54223823 -8.5 6.3125 C-8.83 6.9725 -9.16 7.6325 -9.5 8.3125 C-12.875 9.0625 -12.875 9.0625 -16.5 9.3125 C-17.49 8.6525 -18.48 7.9925 -19.5 7.3125 C-19.5 6.6525 -19.5 5.9925 -19.5 5.3125 C-17.8603125 5.374375 -17.8603125 5.374375 -16.1875 5.4375 C-12.07024159 5.29793192 -10.69440834 4.35254625 -7.65625 1.70703125 C-4.93367605 -0.05376386 -3.21829665 -0.05746958 0 0 Z " fill="#141515" transform="translate(92.5,118.6875)"/>
<path d="M0 0 C0.66 0.33 1.32 0.66 2 1 C1.67 1.66 1.34 2.32 1 3 C0.835 3.845625 0.67 4.69125 0.5 5.5625 C0 8 0 8 -1 9 C-0.01 9.66 0.98 10.32 2 11 C1.67 12.65 1.34 14.3 1 16 C-0.98 16 -2.96 16 -5 16 C-6.125 12.25 -6.125 12.25 -5 10 C-5.0825 8.865625 -5.165 7.73125 -5.25 6.5625 C-5.1675 5.386875 -5.085 4.21125 -5 3 C-2.625 1 -2.625 1 0 0 Z " fill="#8E9398" transform="translate(78,53)"/>
<path d="M0 0 C0.33 0.66 0.66 1.32 1 2 C1.99 2 2.98 2 4 2 C4 1.34 4 0.68 4 0 C4.99 0 5.98 0 7 0 C7 0.66 7 1.32 7 2 C7.66 2.33 8.32 2.66 9 3 C8.01 4.485 8.01 4.485 7 6 C8.65 6 10.3 6 12 6 C8.98509443 8.00993705 6.7850073 8.72623341 3.3125 9.625 C2.31863281 9.88539063 1.32476562 10.14578125 0.30078125 10.4140625 C-0.45847656 10.60742188 -1.21773438 10.80078125 -2 11 C-2.625 9.125 -2.625 9.125 -3 7 C-2.34 6.34 -1.68 5.68 -1 5 C-0.35232207 2.42938689 -0.35232207 2.42938689 0 0 Z " fill="#ECEBEF" transform="translate(114,196)"/>
<path d="M0 0 C0 0.66 0 1.32 0 2 C0.598125 2.12375 1.19625 2.2475 1.8125 2.375 C4 3 4 3 7 5 C6.67 6.32 6.34 7.64 6 9 C5.505 8.38125 5.01 7.7625 4.5 7.125 C0.33079476 3.58117555 -4.16168378 3.16413538 -9.5 2.6875 C-13.15417817 3.01376591 -15.86492198 3.9016463 -19.203125 5.34375 C-21 6 -21 6 -24 6 C-24 5.34 -24 4.68 -24 4 C-15.57284396 -0.31817038 -9.36124139 -1.67639252 0 0 Z " fill="#222223" transform="translate(180,163)"/>
<path d="M0 0 C1.08861328 0.24556641 1.08861328 0.24556641 2.19921875 0.49609375 C4.82038731 0.96768475 7.15697867 1.10213465 9.8125 1.0625 C10.99779297 1.04896484 10.99779297 1.04896484 12.20703125 1.03515625 C12.79871094 1.02355469 13.39039062 1.01195312 14 1 C14 1.33 14 1.66 14 2 C11.36 2 8.72 2 6 2 C5.67 3.32 5.34 4.64 5 6 C5.99 6.33 6.98 6.66 8 7 C8 8.32 8 9.64 8 11 C8.66 11.66 9.32 12.32 10 13 C4.375 13.25 4.375 13.25 1 11 C0.48828125 8.3984375 0.48828125 8.3984375 0.3125 5.375 C0.24675781 4.37210938 0.18101563 3.36921875 0.11328125 2.3359375 C0.07589844 1.56507813 0.03851563 0.79421875 0 0 Z " fill="#1A1214" transform="translate(80,146)"/>
<path d="M0 0 C0.33 0 0.66 0 1 0 C1.33 4.62 1.66 9.24 2 14 C-4 15 -4 15 -5.9375 13.875 C-7 12 -7 12 -6.8125 9.4375 C-6 7 -6 7 -4 5 C-2.68 5 -1.36 5 0 5 C0 3.35 0 1.7 0 0 Z " fill="#ABB1B6" transform="translate(122,70)"/>
<path d="M0 0 C0.33 0.66 0.66 1.32 1 2 C0.67 2.66 0.34 3.32 0 4 C0.845625 3.9175 1.69125 3.835 2.5625 3.75 C7.05693088 4.0768677 9.16764008 5.65800227 13 8 C15.26985894 8.76040572 15.26985894 8.76040572 17 9 C16.67 9.99 16.34 10.98 16 12 C16 11.34 16 10.68 16 10 C11.05 10.33 6.1 10.66 1 11 C-1.34482759 5.13793103 -1.34482759 5.13793103 -1 1 C-0.67 0.67 -0.34 0.34 0 0 Z " fill="#1D1D2B" transform="translate(111,184)"/>
<path d="M0 0 C0.33 0.33 0.66 0.66 1 1 C2.84599688 1.39454223 4.70225822 1.74176866 6.5625 2.0625 C7.57441406 2.23910156 8.58632812 2.41570312 9.62890625 2.59765625 C10.80259766 2.79681641 10.80259766 2.79681641 12 3 C12 3.33 12 3.66 12 4 C6.67450117 4.11256008 1.5913717 3.66848365 -3.6875 3 C-10.82246001 2.14392227 -17.80612623 1.74609857 -25 2 C-25 1.34 -25 0.68 -25 0 C-17.41670803 -2.52776399 -7.81681604 -1.37943812 0 0 Z " fill="#F24158" transform="translate(135,181)"/>
<path d="M0 0 C0.33 0 0.66 0 1 0 C1.33 4.62 1.66 9.24 2 14 C-4 15 -4 15 -5.9375 13.875 C-7 12 -7 12 -6.8125 9.4375 C-6 7 -6 7 -4 5 C-2.68 5 -1.36 5 0 5 C0 3.35 0 1.7 0 0 Z " fill="#AEB4BA" transform="translate(149,70)"/>
<path d="M0 0 C0.33 0.99 0.66 1.98 1 3 C0.34 3 -0.32 3 -1 3 C-0.67 3.99 -0.34 4.98 0 6 C-0.60328125 6.10957031 -1.2065625 6.21914062 -1.828125 6.33203125 C-6.42349762 7.24369388 -9.25293431 8.15739844 -13 11 C-16.0625 11.4375 -16.0625 11.4375 -19 11 C-20.875 9 -20.875 9 -22 7 C-20.63875 7.0309375 -20.63875 7.0309375 -19.25 7.0625 C-16.13912132 7.12396564 -16.13912132 7.12396564 -13.75 6.4375 C-12 6 -12 6 -10 7 C-9.67 6.01 -9.34 5.02 -9 4 C-7.0625 3.25 -7.0625 3.25 -5 3 C-4.34 3.33 -3.68 3.66 -3 4 C-3.33 3.01 -3.66 2.02 -4 1 C-2 0 -2 0 0 0 Z " fill="#151617" transform="translate(89,233)"/>
<path d="M0 0 C0.6875 2.8125 0.6875 2.8125 1 6 C-0.1875 7.9375 -0.1875 7.9375 -2 9 C-4.97397616 8.72963853 -5.85446026 8.14553974 -8 6 C-7.75 2.9375 -7.75 2.9375 -7 0 C-4.3333581 -1.33332095 -2.83319697 -0.67102033 0 0 Z " fill="#64686D" transform="translate(134,76)"/>
<path d="M0 0 C2.625 0.375 2.625 0.375 5 1 C5.625 4.375 5.625 4.375 6 8 C5.34 8.66 4.68 9.32 4 10 C0.70285207 9.67028521 -0.6226839 9.3773161 -3 7 C-2.67028521 3.70285207 -2.3773161 2.3773161 0 0 Z " fill="#63666A" transform="translate(115,54)"/>
<path d="M0 0 C0.99 0 1.98 0 3 0 C3.99 2.31 4.98 4.62 6 7 C6.66 6.34 7.32 5.68 8 5 C8.33 5.99 8.66 6.98 9 8 C12.3 8.66 15.6 9.32 19 10 C19 10.33 19 10.66 19 11 C17.35 11 15.7 11 14 11 C13.67 11.99 13.34 12.98 13 14 C8.14957612 13.58424938 6.15680495 11.58340022 3 8 C1 5 1 5 1 3 C0.01 2.67 -0.98 2.34 -2 2 C-1.34 1.34 -0.68 0.68 0 0 Z " fill="#0C0D0F" transform="translate(87,216)"/>
<path d="M0 0 C-1.875 3.875 -1.875 3.875 -3 5 C-5.52596259 5.23653523 -8.03107207 5.42173692 -10.5625 5.5625 C-11.62887695 5.62727539 -11.62887695 5.62727539 -12.71679688 5.69335938 C-14.47761912 5.79971777 -16.2387832 5.90038846 -18 6 C-18.66 7.65 -19.32 9.3 -20 11 C-20.33 11 -20.66 11 -21 11 C-21.25 8.1875 -21.25 8.1875 -21 5 C-17.80175939 1.68475059 -14.84295802 1.566628 -10.375 1.375 C-6.76813627 1.20478845 -3.40119064 0 0 0 Z " fill="#28314A" transform="translate(69,201)"/>
<path d="M0 0 C1.32 0.33 2.64 0.66 4 1 C6.23017897 8.54089291 5.88969421 13.69808452 3 21 C2.67 21 2.34 21 2 21 C2 19.02 2 17.04 2 15 C1.05125 15.20625 0.1025 15.4125 -0.875 15.625 C-1.90625 15.74875 -2.9375 15.8725 -4 16 C-4.66 15.34 -5.32 14.68 -6 14 C-4.865625 13.525625 -3.73125 13.05125 -2.5625 12.5625 C0.75740166 11.36377917 0.75740166 11.36377917 2 10 C2.33856828 4.67326964 2.33856828 4.67326964 0 0 Z " fill="#DBD9DF" transform="translate(63,155)"/>
<path d="M0 0 C1.32 0 2.64 0 4 0 C4 2.97 4 5.94 4 9 C5.32 9 6.64 9 8 9 C8 6.36 8 3.72 8 1 C8.66 1 9.32 1 10 1 C10 3.64 10 6.28 10 9 C10.66 9 11.32 9 12 9 C12 9.66 12 10.32 12 11 C10.54207116 11.05399736 9.08357288 11.09279177 7.625 11.125 C6.81289062 11.14820313 6.00078125 11.17140625 5.1640625 11.1953125 C3 11 3 11 1 9 C0.5859375 6.8359375 0.5859375 6.8359375 0.375 4.375 C0.30023438 3.55773438 0.22546875 2.74046875 0.1484375 1.8984375 C0.09945312 1.27195312 0.05046875 0.64546875 0 0 Z " fill="#A6ACB3" transform="translate(72,30)"/>
<path d="M0 0 C0.33 2.97 0.66 5.94 1 9 C-4.75 10.125 -4.75 10.125 -7 9 C-7 6.36 -7 3.72 -7 1 C-4 0 -4 0 0 0 Z " fill="#6F747A" transform="translate(81,75)"/>
<path d="M0 0 C0.33 0.66 0.66 1.32 1 2 C-3.39453125 6.00390625 -3.39453125 6.00390625 -5 7 C-5.99 6.67 -6.98 6.34 -8 6 C-8.33 7.32 -8.66 8.64 -9 10 C-9.99 9.67 -10.98 9.34 -12 9 C-12 7.02 -12 5.04 -12 3 C-10.3789897 2.30314502 -8.75303934 1.61777139 -7.125 0.9375 C-6.22007813 0.55464844 -5.31515625 0.17179688 -4.3828125 -0.22265625 C-2 -1 -2 -1 0 0 Z " fill="#111112" transform="translate(72,220)"/>
<path d="M0 0 C0.99 0 1.98 0 3 0 C2.896875 0.7425 2.79375 1.485 2.6875 2.25 C2.77043991 5.10792027 2.77043991 5.10792027 4.75 7.25 C9.61992567 9.87226767 14.54330678 9.8259428 20 10 C19.67 10.66 19.34 11.32 19 12 C16.56640625 12.37890625 16.56640625 12.37890625 13.5625 12.5625 C9.63464783 12.73109366 9.63464783 12.73109366 6 14 C5.67 13.01 5.34 12.02 5 11 C4.154375 10.4225 3.30875 9.845 2.4375 9.25 C0 7 0 7 -0.3125 3.25 C-0.209375 2.1775 -0.10625 1.105 0 0 Z " fill="#C8C7D2" transform="translate(88,201)"/>
<path d="M0 0 C0.66 0.66 1.32 1.32 2 2 C1.01 2.495 1.01 2.495 0 3 C0 2.01 0 1.02 0 0 Z M-17 0 C-16.67 0.66 -16.34 1.32 -16 2 C-13.67843403 2.40729228 -11.3431213 2.74438677 -9 3 C-9 3.66 -9 4.32 -9 5 C-6.69 5 -4.38 5 -2 5 C-2 5.33 -2 5.66 -2 6 C-10.25 6 -18.5 6 -27 6 C-23.63292872 1.51057163 -22.25471679 1.1897472 -17 0 Z M-2 3 C-1.01 3.495 -1.01 3.495 0 4 C-0.99 4.495 -0.99 4.495 -2 5 C-2 4.34 -2 3.68 -2 3 Z " fill="#E52E3F" transform="translate(137,175)"/>
<path d="M0 0 C0.95003906 -0.02578125 1.90007812 -0.0515625 2.87890625 -0.078125 C5.81227202 0.29806237 6.64915852 0.96188633 8.4375 3.25 C5.01974994 3.25 1.65868827 3.00017896 -1.75 2.75 C-3.02230469 2.6571875 -4.29460937 2.564375 -5.60546875 2.46875 C-6.58128906 2.3965625 -7.55710937 2.324375 -8.5625 2.25 C-8.8925 3.9 -9.2225 5.55 -9.5625 7.25 C-11.2125 7.58 -12.8625 7.91 -14.5625 8.25 C-14.8925 7.26 -15.2225 6.27 -15.5625 5.25 C-10.0836749 1.38991868 -6.63998884 0.10840798 0 0 Z " fill="#DEDEE7" transform="translate(72.5625,144.75)"/>
<path d="M0 0 C0.66 0 1.32 0 2 0 C4 3 4 3 4 6 C5.32 6.33 6.64 6.66 8 7 C7.67 7.99 7.34 8.98 7 10 C3.7 10.33 0.4 10.66 -3 11 C-2.34 8.69 -1.68 6.38 -1 4 C-0.34 4 0.32 4 1 4 C0.67 2.68 0.34 1.36 0 0 Z " fill="#0F1012" transform="translate(156,180)"/>
<path d="M0 0 C0.33 0 0.66 0 1 0 C1.103125 1.11375 1.20625 2.2275 1.3125 3.375 C1.6528125 5.169375 1.6528125 5.169375 2 7 C2.99 7.66 3.98 8.32 5 9 C4.01625809 12.30895005 3.4116891 13.72210986 0.5 15.6875 C-0.325 16.120625 -1.15 16.55375 -2 17 C-2.66 17.66 -3.32 18.32 -4 19 C-4.33 18.01 -4.66 17.02 -5 16 C-4.00676254 14.34460423 -3.01061465 12.69080014 -1.9921875 11.05078125 C-0.29392761 7.5405984 -0.17460589 3.85005991 0 0 Z " fill="#D4242A" transform="translate(107,148)"/>
<path d="M0 0 C0.66 0 1.32 0 2 0 C2 1.65 2 3.3 2 5 C3.24136719 5.06058594 4.48273438 5.12117187 5.76171875 5.18359375 C7.40365577 5.26803623 9.04558232 5.35268236 10.6875 5.4375 C11.50412109 5.47681641 12.32074219 5.51613281 13.16210938 5.55664062 C17.19655811 5.76898003 21.05747309 6.04447922 25 7 C25 7.33 25 7.66 25 8 C21.64613239 8.1171893 18.29279851 8.18757584 14.9375 8.25 C13.99455078 8.28351563 13.05160156 8.31703125 12.08007812 8.3515625 C5.79395102 8.43917403 2.16187115 7.63693556 -3 4 C-2.34 3.67 -1.68 3.34 -1 3 C-0.67 2.01 -0.34 1.02 0 0 Z " fill="#C5C5D2" transform="translate(66,182)"/>
<path d="M0 0 C3.92612596 -0.57256004 5.91988086 -0.74950876 9.24609375 1.55859375 C11.23043203 3.31655476 13.14261973 5.10884918 15 7 C14.01 7.33 13.02 7.66 12 8 C10.02 6.02 8.04 4.04 6 2 C5.7525 2.804375 5.505 3.60875 5.25 4.4375 C4 7 4 7 1.875 7.8125 C1.25625 7.874375 0.6375 7.93625 0 8 C0 7.34 0 6.68 0 6 C-1.32 6.33 -2.64 6.66 -4 7 C-3.67 6.34 -3.34 5.68 -3 5 C-1.68 5 -0.36 5 1 5 C0.67 3.35 0.34 1.7 0 0 Z " fill="#D4191F" transform="translate(76,159)"/>
<path d="M0 0 C1.4540625 0.0309375 1.4540625 0.0309375 2.9375 0.0625 C3.2675 1.0525 3.5975 2.0425 3.9375 3.0625 C3.6075 3.7225 3.2775 4.3825 2.9375 5.0625 C1.9475 5.0625 0.9575 5.0625 -0.0625 5.0625 C-0.0625 7.0425 -0.0625 9.0225 -0.0625 11.0625 C-1.7125 11.0625 -3.3625 11.0625 -5.0625 11.0625 C-4.92207123 9.41619672 -4.77500671 7.77045821 -4.625 6.125 C-4.54378906 5.20847656 -4.46257813 4.29195312 -4.37890625 3.34765625 C-3.89440408 -0.1515261 -3.64350125 0.07435717 0 0 Z " fill="#A7ACB3" transform="translate(43.0625,29.9375)"/>
<path d="M0 0 C6.93 0.495 6.93 0.495 14 1 C14 1.66 14 2.32 14 3 C10.535 4.485 10.535 4.485 7 6 C7 6.33 7 6.66 7 7 C5.02 7 3.04 7 1 7 C1.020625 6.21625 1.04125 5.4325 1.0625 4.625 C1.18684063 2.01885039 1.18684063 2.01885039 0 0 Z " fill="#303865" transform="translate(67,180)"/>
<path d="M0 0 C4.62 0 9.24 0 14 0 C14 1.65 14 3.3 14 5 C1.13 3.515 1.13 3.515 -12 2 C-12 1.67 -12 1.34 -12 1 C-8 1 -4 1 0 1 C0 0.67 0 0.34 0 0 Z " fill="#D22E3A" transform="translate(136,182)"/>
<path d="M0 0 C0.99386719 0.00902344 1.98773438 0.01804688 3.01171875 0.02734375 C4.15060547 0.04474609 4.15060547 0.04474609 5.3125 0.0625 C3.9925 2.3725 2.6725 4.6825 1.3125 7.0625 C0.9825 6.0725 0.6525 5.0825 0.3125 4.0625 C-1.6675 4.0625 -3.6475 4.0625 -5.6875 4.0625 C-5.6875 3.4025 -5.6875 2.7425 -5.6875 2.0625 C-7.6675 2.3925 -9.6475 2.7225 -11.6875 3.0625 C-7.56687057 0.31541371 -4.84473861 -0.05699692 0 0 Z " fill="#C5C5D2" transform="translate(101.6875,155.9375)"/>
<path d="M0 0 C1.67542976 0.28604898 3.34385343 0.61781233 5 1 C5 3.31 5 5.62 5 8 C3.34385343 8.38218767 1.67542976 8.71395102 0 9 C-1 8 -1 8 -1.125 4.5 C-1 1 -1 1 0 0 Z " fill="#070709" transform="translate(126,31)"/>
<path d="M0 0 C-17.12632305 7.31862395 -17.12632305 7.31862395 -26 7 C-26 6.34 -26 5.68 -26 5 C-24.84242188 4.73445312 -23.68484375 4.46890625 -22.4921875 4.1953125 C-20.95309007 3.83869236 -19.41402952 3.48191309 -17.875 3.125 C-17.11445313 2.95097656 -16.35390625 2.77695313 -15.5703125 2.59765625 C-12.17045412 1.8063099 -8.92862464 0.97466258 -5.6328125 -0.1953125 C-3 -1 -3 -1 0 0 Z " fill="#1A1B1C" transform="translate(160,191)"/>
<path d="M0 0 C1.65 0.33 3.3 0.66 5 1 C5 3.64 5 6.28 5 9 C3.35 9 1.7 9 0 9 C-1.10844919 5.67465243 -0.84454356 3.37817425 0 0 Z " fill="#838990" transform="translate(153,55)"/>
<path d="M0 0 C1.53271136 3.06542271 0.53183532 5.69080243 0 9 C0 9.66 0 10.32 0 11 C-1.32 11.33 -2.64 11.66 -4 12 C-4 12.66 -4 13.32 -4 14 C-1.03 14 1.94 14 5 14 C5 14.33 5 14.66 5 15 C1.37 15 -2.26 15 -6 15 C-5.3827904 12.8727242 -4.75598201 10.74823143 -4.125 8.625 C-3.77695313 7.44164062 -3.42890625 6.25828125 -3.0703125 5.0390625 C-2 2 -2 2 0 0 Z " fill="#BC1D1F" transform="translate(71,162)"/>
<path d="M0 0 C1.32 0.66 2.64 1.32 4 2 C4 4.31 4 6.62 4 9 C3.01 9.33 2.02 9.66 1 10 C0.34 9.67 -0.32 9.34 -1 9 C-1.125 2.25 -1.125 2.25 0 0 Z " fill="#0B0C0E" transform="translate(64,30)"/>
<path d="M0 0 C1.918125 0.4640625 1.918125 0.4640625 3.875 0.9375 C8.88758722 2.06114833 13.88510956 2.59422581 19 3 C19 3.33 19 3.66 19 4 C15.37 4 11.74 4 8 4 C8 4.66 8 5.32 8 6 C4.65750371 5.40312566 2.53563658 4.26396123 0 2 C0 1.34 0 0.68 0 0 Z " fill="#1C090A" transform="translate(88,197)"/>
<path d="M0 0 C1.32 0.33 2.64 0.66 4 1 C4.33 3.64 4.66 6.28 5 9 C0.25 10.125 0.25 10.125 -2 9 C-1.6875 7.125 -1.6875 7.125 -1 5 C-0.01 4.34 0.98 3.68 2 3 C1.34 2.67 0.68 2.34 0 2 C0 1.34 0 0.68 0 0 Z " fill="#8D9197" transform="translate(108,75)"/>
<path d="M0 0 C2.0625 0.4375 2.0625 0.4375 4 1 C4 1.66 4 2.32 4 3 C3.01 2.67 2.02 2.34 1 2 C0.67 3.32 0.34 4.64 0 6 C0.99 6.33 1.98 6.66 3 7 C2.01 7 1.02 7 0 7 C0.66 9.64 1.32 12.28 2 15 C0.35 15 -1.3 15 -3 15 C-3 12.03 -3 9.06 -3 6 C-2.34 6 -1.68 6 -1 6 C-1.0309375 4.7934375 -1.0309375 4.7934375 -1.0625 3.5625 C-1 1 -1 1 0 0 Z " fill="#A1A7AD" transform="translate(126,49)"/>
<path d="M0 0 C3.5908444 0.4833829 3.94709234 0.79289784 6.125 3.4375 C7.176875 4.9225 7.176875 4.9225 8.25 6.4375 C7.59 8.0875 6.93 9.7375 6.25 11.4375 C6.023125 10.880625 5.79625 10.32375 5.5625 9.75 C3.29399551 5.75311114 0.63100054 2.89783351 -3.75 1.4375 C-2.75 0.4375 -2.75 0.4375 0 0 Z " fill="#0A0A0B" transform="translate(61.75,185.5625)"/>
<path d="M0 0 C2.475 0.495 2.475 0.495 5 1 C5 1.66 5 2.32 5 3 C5.66 3 6.32 3 7 3 C7 3.66 7 4.32 7 5 C6.34 5 5.68 5 5 5 C5.33 7.64 5.66 10.28 6 13 C2.57068046 9.2440786 1.43570917 4.76533255 0 0 Z " fill="#D9D9DF" transform="translate(32,176)"/>
<path d="M0 0 C1.32 0.33 2.64 0.66 4 1 C4.33 3.64 4.66 6.28 5 9 C3.02 9 1.04 9 -1 9 C-1.33 8.01 -1.66 7.02 -2 6 C-0.0625 3.3125 -0.0625 3.3125 2 1 C1.34 0.67 0.68 0.34 0 0 Z " fill="#989EA5" transform="translate(100,55)"/>
<path d="M0 0 C1.98 0 3.96 0 6 0 C6.68707555 2.49064888 7 4.37886292 7 7 C5 7 5 7 3.375 5.5 C2.92125 5.005 2.4675 4.51 2 4 C2 4.99 2 5.98 2 7 C1.34 7 0.68 7 0 7 C0 4.69 0 2.38 0 0 Z " fill="#B5B5B5" transform="translate(209,324)"/>
<path d="M0 0 C3 1 3 1 4 3 C4.66 2.01 5.32 1.02 6 0 C6.66 0 7.32 0 8 0 C8 2.31 8 4.62 8 7 C7.34 6.34 6.68 5.68 6 5 C5.34 5.66 4.68 6.32 4 7 C2.68 7 1.36 7 0 7 C0 4.69 0 2.38 0 0 Z " fill="#C9C9C9" transform="translate(151,324)"/>
<path d="M0 0 C1.95825873 -0.02694851 3.91662226 -0.04637218 5.875 -0.0625 C6.96554688 -0.07410156 8.05609375 -0.08570312 9.1796875 -0.09765625 C12 0 12 0 14 1 C14 1.66 14 2.32 14 3 C14.66 3 15.32 3 16 3 C16 3.66 16 4.32 16 5 C16.66 5 17.32 5 18 5 C17.67 5.99 17.34 6.98 17 8 C16.34 7.67 15.68 7.34 15 7 C15 6.34 15 5.68 15 5 C14.38125 4.690625 13.7625 4.38125 13.125 4.0625 C11.75 3.375 10.375 2.6875 9 2 C7.29297265 1.93003986 5.58331997 1.91559846 3.875 1.9375 C2.96492188 1.94652344 2.05484375 1.95554687 1.1171875 1.96484375 C0.06917969 1.98224609 0.06917969 1.98224609 -1 2 C-0.67 1.34 -0.34 0.68 0 0 Z " fill="#202021" transform="translate(88,120)"/>
<path d="M0 0 C0.99 0 1.98 0 3 0 C3 2.31 3 4.62 3 7 C4.32 7 5.64 7 7 7 C7 4.69 7 2.38 7 0 C7.33 0 7.66 0 8 0 C8 2.31 8 4.62 8 7 C8.66 7 9.32 7 10 7 C10 7.66 10 8.32 10 9 C6.625 9.125 6.625 9.125 3 9 C0.23776722 6.23776722 0.42143709 3.79293383 0 0 Z " fill="#B5BCC4" transform="translate(81,55)"/>
<path d="M0 0 C1.9375 0.8125 1.9375 0.8125 4 2 C4.33 2.99 4.66 3.98 5 5 C4.34 5 3.68 5 3 5 C2.67 4.34 2.34 3.68 2 3 C1.01 3 0.02 3 -1 3 C-1.33397787 5.87413125 -1.33397787 5.87413125 -1 9 C0.88077873 10.91256712 0.88077873 10.91256712 3 12 C0.625 12.125 0.625 12.125 -2 12 C-4 10 -4 10 -4.375 7.125 C-3.92491816 3.37431801 -2.87398748 2.33511483 0 0 Z " fill="#C1C7CE" transform="translate(52,29)"/>
<path d="M0 0 C4.875 0.875 4.875 0.875 6 2 C6.26293056 6.03160191 6.29404844 7.55892734 4 11 C1.375 11.1875 1.375 11.1875 -1 11 C-1.33 10.34 -1.66 9.68 -2 9 C-0.68 9 0.64 9 2 9 C2.16677282 5.58343976 2.16677282 5.58343976 2 2 C1.34 1.34 0.68 0.68 0 0 Z " fill="#A7ACB4" transform="translate(65,30)"/>
<path d="M0 0 C3.875 1.875 3.875 1.875 5 3 C5.33 2.01 5.66 1.02 6 0 C6.66 0 7.32 0 8 0 C8 2.31 8 4.62 8 7 C4.125 5.125 4.125 5.125 3 4 C2.67 4.99 2.34 5.98 2 7 C1.34 7 0.68 7 0 7 C0 4.69 0 2.38 0 0 Z " fill="#CECECE" transform="translate(103,324)"/>
<path d="M0 0 C2.43929746 1.92576115 4.80090595 3.80090595 7 6 C6.67 6.99 6.34 7.98 6 9 C6.99 9.33 7.98 9.66 9 10 C4.59885603 9.49701212 2.28804981 7.91227269 -1 5 C-0.67 3.35 -0.34 1.7 0 0 Z " fill="#384166" transform="translate(91,201)"/>
<path d="M0 0 C3.3 0.33 6.6 0.66 10 1 C9.44661458 3.01822917 8.89322917 5.03645833 8.33984375 7.0546875 C7.78867393 9.07273593 7.78867393 9.07273593 9 11 C8.01 10.67 7.02 10.34 6 10 C5 7 5 7 5 5 C4.34 5 3.68 5 3 5 C3 4.01 3 3.02 3 2 C2.01 2 1.02 2 0 2 C0 1.34 0 0.68 0 0 Z " fill="#E3E3E6" transform="translate(80,189)"/>
<path d="M0 0 C4.95 0 9.9 0 15 0 C15 0.66 15 1.32 15 2 C11.84493858 2.93619813 9.03413498 3.1057123 5.75 3.0625 C4.85796875 3.05347656 3.9659375 3.04445312 3.046875 3.03515625 C2.37140625 3.02355469 1.6959375 3.01195312 1 3 C0.67 2.01 0.34 1.02 0 0 Z " fill="#121413" transform="translate(185,179)"/>
<path d="M0 0 C0.66 0.66 1.32 1.32 2 2 C3.31747324 2.69748583 4.64914193 3.36959957 6 4 C6 4.66 6 5.32 6 6 C6.66 6.66 7.32 7.32 8 8 C2.375 8.25 2.375 8.25 -1 6 C-1.25 3.4375 -1.25 3.4375 -1 1 C-0.67 0.67 -0.34 0.34 0 0 Z " fill="#10121B" transform="translate(82,151)"/>
<path d="M0 0 C0.33 1.32 0.66 2.64 1 4 C0.01 4.33 -0.98 4.66 -2 5 C-1.67 3.68 -1.34 2.36 -1 1 C-2.98 1.99 -2.98 1.99 -5 3 C-5.33425735 5.37374861 -5.33425735 5.37374861 -5 8 C-3.0995533 9.84315671 -3.0995533 9.84315671 -1 11 C-5.75 10.25 -5.75 10.25 -8 8 C-8.36487512 5.15397406 -8.40199375 3.6135694 -6.8125 1.1875 C-4.44017475 -0.36678206 -2.77958655 -0.22537188 0 0 Z " fill="#C5CACF" transform="translate(101,30)"/>
<path d="M0 0 C0 1.32 0 2.64 0 4 C0.99 4.33 1.98 4.66 3 5 C4.1875 7.0625 4.1875 7.0625 5 9 C2 9 2 9 -0.1875 7 C-0.785625 6.34 -1.38375 5.68 -2 5 C-2.99 5.495 -2.99 5.495 -4 6 C-4 4.68 -4 3.36 -4 2 C-5.32 1.67 -6.64 1.34 -8 1 C-5.23735711 0.40267181 -2.83967231 0 0 0 Z " fill="#2E1B1B" transform="translate(168,136)"/>
<path d="M0 0 C2.0625 0.1875 2.0625 0.1875 4 1 C4.33 1.99 4.66 2.98 5 4 C3.02 4.33 1.04 4.66 -1 5 C0.25541557 7.51083114 1.50063488 7.87125446 4 9 C2.33388095 9.042721 0.66617115 9.04063832 -1 9 C-2 8 -2 8 -2.1875 5.0625 C-2 2 -2 2 0 0 Z " fill="#969BA1" transform="translate(201,75)"/>
<path d="M0 0 C0.94875 0.04125 1.8975 0.0825 2.875 0.125 C2.875 1.445 2.875 2.765 2.875 4.125 C2.215 3.795 1.555 3.465 0.875 3.125 C1.205 2.465 1.535 1.805 1.875 1.125 C0.555 1.455 -0.765 1.785 -2.125 2.125 C-2.45897787 4.99913125 -2.45897787 4.99913125 -2.125 8.125 C-0.24422127 10.03756712 -0.24422127 10.03756712 1.875 11.125 C-0.5 11.25 -0.5 11.25 -3.125 11.125 C-5.125 9.125 -5.125 9.125 -5.375 5.625 C-5.05328869 1.12104166 -4.56738407 0.18269536 0 0 Z " fill="#C6CCD2" transform="translate(33.125,29.875)"/>
<path d="M0 0 C1.06347656 -0.01417969 2.12695312 -0.02835938 3.22265625 -0.04296875 C5.9375 0.1875 5.9375 0.1875 7.9375 2.1875 C6.9375 3.1875 6.9375 3.1875 3.33984375 3.28515625 C1.85153133 3.2784822 0.36323568 3.26652183 -1.125 3.25 C-1.88361328 3.24548828 -2.64222656 3.24097656 -3.42382812 3.23632812 C-5.30341871 3.2245068 -7.18296899 3.20657078 -9.0625 3.1875 C-9.0625 2.5275 -9.0625 1.8675 -9.0625 1.1875 C-5.83852808 0.11284269 -3.38779214 0.02058197 0 0 Z " fill="#161719" transform="translate(163.0625,229.8125)"/>
<path d="M0 0 C5.28 0 10.56 0 16 0 C16.33 2.31 16.66 4.62 17 7 C15 5.625 15 5.625 13 4 C13 3.34 13 2.68 13 2 C8.71 1.67 4.42 1.34 0 1 C0 0.67 0 0.34 0 0 Z " fill="#1F1C1D" transform="translate(67,138)"/>
<path d="M0 0 C2.0625 2.1875 2.0625 2.1875 4 5 C3.75 7.8125 3.75 7.8125 3 10 C1.68 9.67 0.36 9.34 -1 9 C-1 5.72724974 -0.70074844 3.153368 0 0 Z " fill="#868C92" transform="translate(85,75)"/>
<path d="M0 0 C2.4375 0.8125 2.4375 0.8125 5 2 C5.33 2.99 5.66 3.98 6 5 C5 6 5 6 1.9375 6.0625 C0.968125 6.041875 -0.00125 6.02125 -1 6 C-1.625 4.125 -1.625 4.125 -2 2 C-1.34 1.34 -0.68 0.68 0 0 Z " fill="#696F77" transform="translate(74,63)"/>
<path d="M0 0 C5.61 0.33 11.22 0.66 17 1 C17 1.66 17 2.32 17 3 C14.91731407 3.08126087 12.83371342 3.13930839 10.75 3.1875 C9.00976562 3.23970703 9.00976562 3.23970703 7.234375 3.29296875 C4 3 4 3 0 0 Z " fill="#F3425C" transform="translate(93,196)"/>
<path d="M0 0 C1.77119803 0.14133499 3.54195287 0.28823208 5.3125 0.4375 C6.29863281 0.51871094 7.28476563 0.59992188 8.30078125 0.68359375 C11 1 11 1 14 2 C13.67 3.32 13.34 4.64 13 6 C11.96875 5.54625 10.9375 5.0925 9.875 4.625 C6.63562492 3.23292639 3.36260307 2.06619122 0 1 C0 0.67 0 0.34 0 0 Z " fill="#F0455D" transform="translate(82,175)"/>
<path d="M0 0 C1.2065625 0.0309375 1.2065625 0.0309375 2.4375 0.0625 C2.7675 1.3825 3.0975 2.7025 3.4375 4.0625 C2.4475 4.0625 1.4575 4.0625 0.4375 4.0625 C0.1075 5.7125 -0.2225 7.3625 -0.5625 9.0625 C-1.5525 8.7325 -2.5425 8.4025 -3.5625 8.0625 C-3.60491723 5.72955225 -3.60342937 3.39547433 -3.5625 1.0625 C-2.5625 0.0625 -2.5625 0.0625 0 0 Z " fill="#9BA0A6" transform="translate(101.5625,74.9375)"/>
<path d="M0 0 C1.32 0 2.64 0 4 0 C4 3.3 4 6.6 4 10 C4.66 10.33 5.32 10.66 6 11 C2.125 10.125 2.125 10.125 1 9 C0.76807135 7.48530552 0.58784762 5.96245438 0.4375 4.4375 C0.35371094 3.61121094 0.26992187 2.78492188 0.18359375 1.93359375 C0.12300781 1.29550781 0.06242187 0.65742188 0 0 Z " fill="#A4A9AF" transform="translate(103,30)"/>
<path d="M0 0 C0.66 0 1.32 0 2 0 C4.30152521 3.22213529 5.56181826 6.05636433 6 10 C5 11 5 11 2.4375 11.0625 C1.633125 11.041875 0.82875 11.02125 0 11 C-0.33 9.68 -0.66 8.36 -1 7 C1 8 1 8 4 10 C4 8.68 4 7.36 4 6 C2.68 5.34 1.36 4.68 0 4 C0 2.68 0 1.36 0 0 Z " fill="#BFC3CA" transform="translate(86,30)"/>
<path d="M0 0 C1.98 0 3.96 0 6 0 C6 1.32 6 2.64 6 4 C4.68 4 3.36 4 2 4 C2 4.99 2 5.98 2 7 C1.34 7 0.68 7 0 7 C0 4.69 0 2.38 0 0 Z " fill="#B6B6B6" transform="translate(60,324)"/>
<path d="M0 0 C0.66 0 1.32 0 2 0 C2 0.99 2 1.98 2 3 C3.32 3 4.64 3 6 3 C6 2.01 6 1.02 6 0 C6.66 0 7.32 0 8 0 C8 2.31 8 4.62 8 7 C7.34 7 6.68 7 6 7 C6 6.01 6 5.02 6 4 C4.68 4 3.36 4 2 4 C2 4.99 2 5.98 2 7 C1.34 7 0.68 7 0 7 C0 4.69 0 2.38 0 0 Z " fill="#D5D5D5" transform="translate(74,324)"/>
<path d="M0 0 C0.33 0.66 0.66 1.32 1 2 C2.32796291 2.35412344 3.66216607 2.68521554 5 3 C5.99 3.66 6.98 4.32 8 5 C7.67 6.32 7.34 7.64 7 9 C6.2575 8.071875 6.2575 8.071875 5.5 7.125 C2.11778563 4.25011778 -0.67257085 3.86548583 -5 3 C-2 1 -2 1 0 0 Z " fill="#19191A" transform="translate(179,163)"/>
<path d="M0 0 C0.99 0 1.98 0 3 0 C2.625 1.9375 2.625 1.9375 2 4 C-0.40545638 5.20272819 -1.94996953 5.10071472 -4.625 5.0625 C-5.85089844 5.04896484 -5.85089844 5.04896484 -7.1015625 5.03515625 C-8.04128906 5.01775391 -8.04128906 5.01775391 -9 5 C-8.01 4.67 -7.02 4.34 -6 4 C-6 3.34 -6 2.68 -6 2 C-4.02 2 -2.04 2 0 2 C0 1.34 0 0.68 0 0 Z " fill="#F1F1F4" transform="translate(99,160)"/>
<path d="M0 0 C0.66 0 1.32 0 2 0 C2.9765625 1.79036458 3.953125 3.58072917 4.9296875 5.37109375 C5.91410024 7.16618315 5.91410024 7.16618315 8 8 C8 8.66 8 9.32 8 10 C9.32 10.33 10.64 10.66 12 11 C10.3125 11.8125 10.3125 11.8125 8 12 C4.77272377 9.37314725 2.47246642 7.25219775 2 3 C1.34 3 0.68 3 0 3 C0 2.01 0 1.02 0 0 Z " fill="#0C0E0E" transform="translate(189,129)"/>
<path d="M0 0 C3.458176 -0.0868329 6.91607344 -0.14033282 10.375 -0.1875 C11.35984375 -0.21263672 12.3446875 -0.23777344 13.359375 -0.26367188 C14.77089844 -0.27817383 14.77089844 -0.27817383 16.2109375 -0.29296875 C17.08024902 -0.3086792 17.94956055 -0.32438965 18.84521484 -0.34057617 C19.55629395 -0.22818604 20.26737305 -0.1157959 21 0 C21.66 0.99 22.32 1.98 23 3 C22.42926758 2.83250244 21.85853516 2.66500488 21.27050781 2.49243164 C18.92877668 1.98455296 17.05640613 1.96780246 14.671875 2.12109375 C13.47304687 2.19360352 13.47304687 2.19360352 12.25 2.26757812 C11.0125 2.35168945 11.0125 2.35168945 9.75 2.4375 C8.48929688 2.51581055 8.48929688 2.51581055 7.203125 2.59570312 C5.1350648 2.72495689 3.0674778 2.86174274 1 3 C0.67 2.01 0.34 1.02 0 0 Z " fill="#8D2224" transform="translate(83,145)"/>
<path d="M0 0 C0 0.66 0 1.32 0 2 C0.66 2.33 1.32 2.66 2 3 C1.34 4.32 0.68 5.64 0 7 C-2.5 5.6875 -2.5 5.6875 -5 4 C-5 3.01 -5 2.02 -5 1 C-3 0 -3 0 0 0 Z " fill="#121415" transform="translate(118,208)"/>
<path d="M0 0 C3.0390625 0.2421875 3.0390625 0.2421875 6.625 0.875 C8.40777344 1.18050781 8.40777344 1.18050781 10.2265625 1.4921875 C11.14179687 1.65976563 12.05703125 1.82734375 13 2 C11 4 11 4 7.75 4.25 C4.1318718 4.00879145 1.36104678 3.31162801 -2 2 C-1.34 1.34 -0.68 0.68 0 0 Z " fill="#222D65" transform="translate(94,203)"/>
<path d="M0 0 C0.33 0 0.66 0 1 0 C1.50692692 1.5811292 2.00526443 3.16501383 2.5 4.75 C2.7784375 5.63171875 3.056875 6.5134375 3.34375 7.421875 C4 10 4 10 4 14 C3.34 14 2.68 14 2 14 C2 12.02 2 10.04 2 8 C1.01 8 0.02 8 -1 8 C-1.04241723 5.66705225 -1.04092937 3.33297433 -1 1 C-0.67 0.67 -0.34 0.34 0 0 Z " fill="#AE1C1D" transform="translate(109,185)"/>
<path d="M0 0 C1.32 0.33 2.64 0.66 4 1 C4.33 3.64 4.66 6.28 5 9 C4.34 9 3.68 9 3 9 C3 7.68 3 6.36 3 5 C2.01 5.495 2.01 5.495 1 6 C1 6.99 1 7.98 1 9 C0.01 9 -0.98 9 -2 9 C-1.6875 7.0625 -1.6875 7.0625 -1 5 C-0.01 4.67 0.98 4.34 2 4 C2 3.34 2 2.68 2 2 C1.34 2 0.68 2 0 2 C0 1.34 0 0.68 0 0 Z " fill="#B5BCC3" transform="translate(155,75)"/>
<path d="M0 0 C1.41750563 0.11509661 2.83401169 0.24253658 4.25 0.375 C5.03890625 0.44460937 5.8278125 0.51421875 6.640625 0.5859375 C9 1 9 1 13 3 C7.06 3.495 7.06 3.495 1 4 C1.33 3.34 1.66 2.68 2 2 C1.34 1.34 0.68 0.68 0 0 Z " fill="#0F0F12" transform="translate(134,191)"/>
<path d="M0 0 C0.33 0.66 0.66 1.32 1 2 C3.01669827 3.13350534 3.01669827 3.13350534 5 4 C4.25234375 4.06058594 3.5046875 4.12117187 2.734375 4.18359375 C1.74953125 4.26738281 0.7646875 4.35117188 -0.25 4.4375 C-1.71179688 4.55931641 -1.71179688 4.55931641 -3.203125 4.68359375 C-5.56461753 4.95074584 -7.71901065 5.35371968 -10 6 C-8.10595266 2.65756352 -7.05908409 2.02002851 -3.3125 0.75 C-1.6728125 0.37875 -1.6728125 0.37875 0 0 Z " fill="#E32535" transform="translate(120,175)"/>
<path d="M0 0 C2.0625 0.4375 2.0625 0.4375 4 1 C4 1.66 4 2.32 4 3 C3.34 3 2.68 3 2 3 C2 4.98 2 6.96 2 9 C2.66 9.33 3.32 9.66 4 10 C2.68 10 1.36 10 0 10 C-0.19412181 8.52168779 -0.38012131 7.04230684 -0.5625 5.5625 C-0.66691406 4.73878906 -0.77132812 3.91507812 -0.87890625 3.06640625 C-0.91886719 2.38449219 -0.95882812 1.70257813 -1 1 C-0.67 0.67 -0.34 0.34 0 0 Z " fill="#A2ABB1" transform="translate(92,74)"/>
<path d="M0 0 C0.66 0.33 1.32 0.66 2 1 C1.34 2.32 0.68 3.64 0 5 C1.98 6.65 3.96 8.3 6 10 C5.01 10.495 5.01 10.495 4 11 C1.69 9.35 -0.62 7.7 -3 6 C-2 2 -2 2 0 0 Z " fill="#1F1F21" transform="translate(163,171)"/>
<path d="M0 0 C1.32 0.33 2.64 0.66 4 1 C3.01 1.66 2.02 2.32 1 3 C1.66 3.66 2.32 4.32 3 5 C0.1875 5.6875 0.1875 5.6875 -3 6 C-4.875 4.5625 -4.875 4.5625 -6 3 C-5.34 2.67 -4.68 2.34 -4 2 C-3.01 2.33 -2.02 2.66 -1 3 C-0.67 2.01 -0.34 1.02 0 0 Z " fill="#E22736" transform="translate(132,148)"/>
<path d="M0 0 C1.98 0.495 1.98 0.495 4 1 C4 1.66 4 2.32 4 3 C5.65 2.34 7.3 1.68 9 1 C9.33 1.66 9.66 2.32 10 3 C7.59454362 4.20272819 6.05003047 4.10071472 3.375 4.0625 C2.14910156 4.04896484 2.14910156 4.04896484 0.8984375 4.03515625 C-0.04128906 4.01775391 -0.04128906 4.01775391 -1 4 C-0.67 2.68 -0.34 1.36 0 0 Z " fill="#484D53" transform="translate(51,31)"/>
<path d="M0 0 C1.98 0 3.96 0 6 0 C4.68 0.33 3.36 0.66 2 1 C2 1.66 2 2.32 2 3 C3.32 3.33 4.64 3.66 6 4 C4.68 4 3.36 4 2 4 C2 4.66 2 5.32 2 6 C3.32 6.33 4.64 6.66 6 7 C4.02 7 2.04 7 0 7 C0 4.69 0 2.38 0 0 Z " fill="#DCDCDC" transform="translate(167,324)"/>
<path d="M0 0 C1.98 0 3.96 0 6 0 C4.68 0.33 3.36 0.66 2 1 C2 1.66 2 2.32 2 3 C3.32 3.33 4.64 3.66 6 4 C4.68 4 3.36 4 2 4 C2 4.66 2 5.32 2 6 C3.32 6.33 4.64 6.66 6 7 C4.02 7 2.04 7 0 7 C0 4.69 0 2.38 0 0 Z " fill="#DBDBDB" transform="translate(46,324)"/>
<path d="M0 0 C0 1.98 0 3.96 0 6 C-0.99 6 -1.98 6 -3 6 C-3 5.34 -3 4.68 -3 4 C-5.475 3.01 -5.475 3.01 -8 2 C-4.77208445 -0.1519437 -3.71599191 -0.20086443 0 0 Z " fill="#E42835" transform="translate(113,145)"/>
<path d="M0 0 C0 2.31 0 4.62 0 7 C-1.32 7 -2.64 7 -4 7 C-4 5.02 -4 3.04 -4 1 C-2 0 -2 0 0 0 Z " fill="#18191D" transform="translate(88,55)"/>
<path d="M0 0 C2 1 2 1 3 3 C2.01 3.99 1.02 4.98 0 6 C-1.98 5.34 -3.96 4.68 -6 4 C-4.03617993 2.49440461 -2.21736634 1.10868317 0 0 Z " fill="#151515" transform="translate(78,215)"/>
<path d="M0 0 C2.64 0 5.28 0 8 0 C8 1.32 8 2.64 8 4 C5.69 3.67 3.38 3.34 1 3 C0.67 2.01 0.34 1.02 0 0 Z " fill="#1C254A" transform="translate(96,207)"/>
<path d="M0 0 C2.97 0.495 2.97 0.495 6 1 C5.67 1.66 5.34 2.32 5 3 C5.66 3.66 6.32 4.32 7 5 C3.7 4.67 0.4 4.34 -3 4 C-3 3.34 -3 2.68 -3 2 C-2.01 2 -1.02 2 0 2 C0 1.34 0 0.68 0 0 Z " fill="#C93342" transform="translate(90,194)"/>
<path d="M0 0 C7.75 -0.125 7.75 -0.125 10 1 C10.625 3.0625 10.625 3.0625 11 5 C7.08406554 4.21681311 3.63593365 2.60820142 0 1 C0 0.67 0 0.34 0 0 Z " fill="#07090F" transform="translate(113,187)"/>
<path d="M0 0 C-0.66 1.32 -1.32 2.64 -2 4 C-2.99 4 -3.98 4 -5 4 C-5 3.34 -5 2.68 -5 2 C-6.98 2.33 -8.96 2.66 -11 3 C-11 2.34 -11 1.68 -11 1 C-9.54182203 0.83197949 -8.0834516 0.66562857 -6.625 0.5 C-5.81289062 0.4071875 -5.00078125 0.314375 -4.1640625 0.21875 C-2 0 -2 0 0 0 Z " fill="#CB2024" transform="translate(145,167)"/>
<path d="M0 0 C0.66 0 1.32 0 2 0 C2 2.31 2 4.62 2 7 C0.68 6.67 -0.64 6.34 -2 6 C-1.125 1.125 -1.125 1.125 0 0 Z " fill="#080A0C" transform="translate(146,76)"/>
<path d="M0 0 C0.66 0 1.32 0 2 0 C2 2.31 2 4.62 2 7 C0.68 6.67 -0.64 6.34 -2 6 C-1.125 1.125 -1.125 1.125 0 0 Z " fill="#08090C" transform="translate(119,76)"/>
<path d="M0 0 C0.66 0 1.32 0 2 0 C2 0.66 2 1.32 2 2 C2.99 1.67 3.98 1.34 5 1 C6.56118428 0.93259135 8.1250252 0.91485544 9.6875 0.9375 C10.89986328 0.95103516 10.89986328 0.95103516 12.13671875 0.96484375 C13.05904297 0.98224609 13.05904297 0.98224609 14 1 C14 1.33 14 1.66 14 2 C13.24074219 2.13277344 12.48148438 2.26554688 11.69921875 2.40234375 C10.70535156 2.57894531 9.71148437 2.75554687 8.6875 2.9375 C7.70136719 3.11152344 6.71523437 3.28554687 5.69921875 3.46484375 C2.91810787 3.95746847 2.91810787 3.95746847 0 5 C0 3.35 0 1.7 0 0 Z " fill="#C12229" transform="translate(108,181)"/>
<path d="M0 0 C-0.33 0.66 -0.66 1.32 -1 2 C0.65 2.33 2.3 2.66 4 3 C4 3.33 4 3.66 4 4 C1.03 4 -1.94 4 -5 4 C-5.66 2.68 -6.32 1.36 -7 0 C-3.98968256 -0.93423645 -3.13349732 -1.04449911 0 0 Z " fill="#EAD5D4" transform="translate(94,162)"/>
<path d="M0 0 C-1.33333333 0.66666667 -2.66666667 1.33333333 -4 2 C-4.66 2.391875 -5.32 2.78375 -6 3.1875 C-8.42863035 4.17413108 -9.57447091 3.86626039 -12 3 C-8.2391768 -0.7608232 -5.0273023 -0.25136512 0 0 Z " fill="#EE3949" transform="translate(144,148)"/>
<path d="M0 0 C0.66 0.33 1.32 0.66 2 1 C1.45276317 4.37462715 0.9451 6.08235 -1 9 C-1.625 5.625 -1.625 5.625 -2 2 C-1.34 1.34 -0.68 0.68 0 0 Z " fill="#D9D9E1" transform="translate(51,206)"/>
<path d="M0 0 C-0.99 0.66 -1.98 1.32 -3 2 C-3.99 3.485 -3.99 3.485 -5 5 C-7.475 4.01 -7.475 4.01 -10 3 C-7.29536552 -0.8183075 -4.37912428 -0.24787496 0 0 Z " fill="#0D0E10" transform="translate(175,133)"/>
<path d="M0 0 C2.97 0 5.94 0 9 0 C6.23776722 2.76223278 3.79293383 2.57856291 0 3 C0 2.01 0 1.02 0 0 Z " fill="#1E2643" transform="translate(37,172)"/>
<path d="M0 0 C0.66 0 1.32 0 2 0 C2.33 2.97 2.66 5.94 3 9 C1.68 8.67 0.36 8.34 -1 8 C-0.67 5.36 -0.34 2.72 0 0 Z " fill="#ADB3BA" transform="translate(132,55)"/>
<path d="M0 0 C1.65 0 3.3 0 5 0 C5.33 0.99 5.66 1.98 6 3 C5.67 3.66 5.34 4.32 5 5 C4.01 5 3.02 5 2 5 C2 4.01 2 3.02 2 2 C1.34 2 0.68 2 0 2 C0 1.34 0 0.68 0 0 Z " fill="#7A7F85" transform="translate(41,30)"/>
<path d="M0 0 C2.475 0.99 2.475 0.99 5 2 C4.67 2.99 4.34 3.98 4 5 C2.35 5.33 0.7 5.66 -1 6 C-0.34 5.67 0.32 5.34 1 5 C0.67 3.35 0.34 1.7 0 0 Z " fill="#E2E2E5" transform="translate(112,218)"/>
<path d="M0 0 C1.98 0 3.96 0 6 0 C4.515 2.475 4.515 2.475 3 5 C2.01 4.67 1.02 4.34 0 4 C0 2.68 0 1.36 0 0 Z " fill="#111213" transform="translate(137,203)"/>
<path d="M0 0 C-3.50776784 1.60355101 -6.14354879 2.22036864 -10 2 C-9.34 1.67 -8.68 1.34 -8 1 C-8 0.34 -8 -0.32 -8 -1 C-4.59745511 -2.2151946 -3.06748874 -1.86240388 0 0 Z " fill="#101113" transform="translate(64,160)"/>
<path d="M0 0 C0.33 0 0.66 0 1 0 C1.22786458 1.98567708 1.45572917 3.97135417 1.68359375 5.95703125 C1.97170735 8.19396393 1.97170735 8.19396393 3 11 C1.68 11.33 0.36 11.66 -1 12 C-0.67 8.04 -0.34 4.08 0 0 Z " fill="#B21C1F" transform="translate(107,148)"/>
<path d="M0 0 C0.99 0 1.98 0 3 0 C4.6875 2.5 4.6875 2.5 6 5 C4.68 5.33 3.36 5.66 2 6 C1.34 4.02 0.68 2.04 0 0 Z " fill="#CA1E23" transform="translate(128,163)"/>
<path d="M0 0 C0 3 0 3 -2 6 C-4.64 5.67 -7.28 5.34 -10 5 C-10 4.67 -10 4.34 -10 4 C-7.98177083 3.54427083 -5.96354167 3.08854167 -3.9453125 2.6328125 C-1.79280036 2.09525572 -1.79280036 2.09525572 0 0 Z " fill="#101011" transform="translate(162,157)"/>
<path d="M0 0 C0.33 0 0.66 0 1 0 C1.66 2.31 2.32 4.62 3 7 C-1.455 7.495 -1.455 7.495 -6 8 C-5.67 7.34 -5.34 6.68 -5 6 C-2.4375 5.375 -2.4375 5.375 0 5 C0 3.35 0 1.7 0 0 Z " fill="#F5FBFB" transform="translate(79,151)"/>
<path d="M0 0 C1.32 0 2.64 0 4 0 C4 1.32 4 2.64 4 4 C2.35 3.67 0.7 3.34 -1 3 C-0.67 2.01 -0.34 1.02 0 0 Z " fill="#0A0B0D" transform="translate(104,267)"/>
<path d="M0 0 C0.99 0 1.98 0 3 0 C2.979375 0.78375 2.95875 1.5675 2.9375 2.375 C2.81315937 4.98114961 2.81315937 4.98114961 4 7 C2.68 7 1.36 7 0 7 C0 4.69 0 2.38 0 0 Z " fill="#CECDD7" transform="translate(88,201)"/>
<path d="M0 0 C0.33 0.66 0.66 1.32 1 2 C1.66 2 2.32 2 3 2 C2.67 3.65 2.34 5.3 2 7 C1.67 6.34 1.34 5.68 1 5 C-0.32 5.33 -1.64 5.66 -3 6 C-2.01 4.02 -1.02 2.04 0 0 Z " fill="#C22027" transform="translate(95,183)"/>
<path d="M0 0 C1.32 0 2.64 0 4 0 C2.86695008 3.39914975 1.87481525 4.05254451 -1 6 C-1.33 5.01 -1.66 4.02 -2 3 C-1.34 2.01 -0.68 1.02 0 0 Z " fill="#D21B21" transform="translate(104,161)"/>
<path d="M0 0 C-0.375 1.9375 -0.375 1.9375 -1 4 C-1.99 4.495 -1.99 4.495 -3 5 C-5.625 4.0625 -5.625 4.0625 -8 3 C-8 2.67 -8 2.34 -8 2 C-2.25 0 -2.25 0 0 0 Z " fill="#E62A39" transform="translate(160,149)"/>
<path d="M0 0 C-0.33 3.3 -0.66 6.6 -1 10 C-1.33 10 -1.66 10 -2 10 C-1.67 7.69 -1.34 5.38 -1 3 C-1.99 3 -2.98 3 -4 3 C-4 2.34 -4 1.68 -4 1 C-2 0 -2 0 0 0 Z " fill="#B92125" transform="translate(164,138)"/>
<path d="M0 0 C2.31 0.66 4.62 1.32 7 2 C6.67 2.99 6.34 3.98 6 5 C4.125 4.75 4.125 4.75 2 4 C0.75 1.9375 0.75 1.9375 0 0 Z " fill="#0F1011" transform="translate(181,119)"/>
<path d="M0 0 C0.33 0 0.66 0 1 0 C1 2.31 1 4.62 1 7 C1.66 7 2.32 7 3 7 C3 7.66 3 8.32 3 9 C1.35 9 -0.3 9 -2 9 C-2.33 8.34 -2.66 7.68 -3 7 C-2.01 7 -1.02 7 0 7 C0 4.69 0 2.38 0 0 Z " fill="#A4A8AF" transform="translate(88,55)"/>
<path d="M0 0 C1.98 0 3.96 0 6 0 C6.33 0.99 6.66 1.98 7 3 C5.02 3 3.04 3 1 3 C0.67 2.01 0.34 1.02 0 0 Z " fill="#1C1D1D" transform="translate(147,220)"/>
<path d="M0 0 C0.99 0.99 1.98 1.98 3 3 C2.34 3 1.68 3 1 3 C1.99 4.65 2.98 6.3 4 8 C2.0625 7.25 2.0625 7.25 0 6 C-0.8125 4 -0.8125 4 -1 2 C-0.67 1.34 -0.34 0.68 0 0 Z " fill="#50567B" transform="translate(91,201)"/>
<path d="M0 0 C3.16595501 0.56534911 6.0410416 1.76710066 9 3 C9 3.33 9 3.66 9 4 C1.25 3.25 1.25 3.25 -1 1 C-0.67 0.67 -0.34 0.34 0 0 Z " fill="#E32734" transform="translate(92,192)"/>
<path d="M0 0 C1.11375 0.1546875 1.11375 0.1546875 2.25 0.3125 C1.63125 0.56 1.0125 0.8075 0.375 1.0625 C-2.10068687 2.51878639 -2.70125002 3.69062506 -3.75 6.3125 C-4.74 5.9825 -5.73 5.6525 -6.75 5.3125 C-3.42692308 0.38942308 -3.42692308 0.38942308 0 0 Z " fill="#2A2526" transform="translate(60.75,184.6875)"/>
<path d="M0 0 C0.66 0.99 1.32 1.98 2 3 C0.02 3.99 0.02 3.99 -2 5 C-2.66 4.34 -3.32 3.68 -4 3 C-3 1 -3 1 0 0 Z " fill="#121F3D" transform="translate(92,184)"/>
<path d="M0 0 C1.98 0 3.96 0 6 0 C5.360625 0.45375 4.72125 0.9075 4.0625 1.375 C1.90297594 2.83921726 1.90297594 2.83921726 1 5 C0.01 4.67 -0.98 4.34 -2 4 C-1.34 2.68 -0.68 1.36 0 0 Z " fill="#D23939" transform="translate(75,158)"/>
<path d="M0 0 C0.99 0 1.98 0 3 0 C3.625 2.375 3.625 2.375 4 5 C3.34 5.66 2.68 6.32 2 7 C2 6.34 2 5.68 2 5 C1.34 5 0.68 5 0 5 C0 3.35 0 1.7 0 0 Z " fill="#080909" transform="translate(81,133)"/>
<path d="M0 0 C0.99 0.66 1.98 1.32 3 2 C-0.22791555 4.1519437 -1.28400809 4.20086443 -5 4 C-5 3.34 -5 2.68 -5 2 C-2.6875 0.875 -2.6875 0.875 0 0 Z " fill="#1C1C1C" transform="translate(110,126)"/>
</svg>
